<?xml version="1.0" encoding="UTF-8"?>
<svg  xmlns="http://www.w3.org/2000/svg" version="1.1" width="600" height="1000" stroke="black">
<path d= "M 300.,850. 308.660254038,855."/> 
<path d= "M 308.660254038,855. 317.320508076,860."/> 
<path d= "M 300.,850. 308.660254038,845."/> 
<path d= "M 300.,850. 308.660254038,845."/> 
<path d= "M 300.,850. 300.,840."/> 
<path d= "M 300.,840. 308.660254038,845."/> 
<path d= "M 308.660254038,845. 317.320508076,850."/> 
<path d= "M 300.,840. 308.660254038,835."/> 
<path d= "M 300.,840. 308.660254038,835."/> 
<path d= "M 300.,840. 300.,830."/> 
<path d= "M 300.,850. 308.660254038,845."/> 
<path d= "M 308.660254038,845. 317.320508076,840."/> 
<path d= "M 300.,850. 300.,840."/> 
<path d= "M 300.,850. 300.,840."/> 
<path d= "M 300.,850. 291.339745962,845."/> 
<path d= "M 300.,850. 308.660254038,845."/> 
<path d= "M 308.660254038,845. 317.320508076,840."/> 
<path d= "M 300.,850. 300.,840."/> 
<path d= "M 300.,850. 300.,840."/> 
<path d= "M 300.,850. 291.339745962,845."/> 
<path d= "M 300.,850. 300.,840."/> 
<path d= "M 300.,840. 300.,830."/> 
<path d= "M 300.,850. 291.339745962,845."/> 
<path d= "M 300.,850. 291.339745962,845."/> 
<path d= "M 300.,850. 291.339745962,855."/> 
<path d= "M 291.339745962,855. 300.,860."/> 
<path d= "M 300.,860. 308.660254038,865."/> 
<path d= "M 291.339745962,855. 300.,850."/> 
<path d= "M 291.339745962,855. 300.,850."/> 
<path d= "M 291.339745962,855. 291.339745962,845."/> 
<path d= "M 291.339745962,845. 300.,850."/> 
<path d= "M 300.,850. 308.660254038,855."/> 
<path d= "M 291.339745962,845. 300.,840."/> 
<path d= "M 291.339745962,845. 300.,840."/> 
<path d= "M 291.339745962,845. 291.339745962,835."/> 
<path d= "M 291.339745962,855. 300.,850."/> 
<path d= "M 300.,850. 308.660254038,845."/> 
<path d= "M 291.339745962,855. 291.339745962,845."/> 
<path d= "M 291.339745962,855. 291.339745962,845."/> 
<path d= "M 291.339745962,855. 282.679491924,850."/> 
<path d= "M 291.339745962,855. 300.,850."/> 
<path d= "M 300.,850. 308.660254038,845."/> 
<path d= "M 291.339745962,855. 291.339745962,845."/> 
<path d= "M 291.339745962,855. 291.339745962,845."/> 
<path d= "M 291.339745962,855. 282.679491924,850."/> 
<path d= "M 291.339745962,855. 291.339745962,845."/> 
<path d= "M 291.339745962,845. 291.339745962,835."/> 
<path d= "M 291.339745962,855. 282.679491924,850."/> 
<path d= "M 291.339745962,855. 282.679491924,850."/> 
<path d= "M 291.339745962,855. 282.679491924,860."/> 
<path d= "M 300.,850. 308.660254038,845."/> 
<path d= "M 308.660254038,845. 317.320508076,840."/> 
<path d= "M 300.,850. 300.,840."/> 
<path d= "M 300.,850. 300.,840."/> 
<path d= "M 300.,850. 291.339745962,845."/> 
<path d= "M 291.339745962,845. 300.,840."/> 
<path d= "M 300.,840. 308.660254038,835."/> 
<path d= "M 291.339745962,845. 291.339745962,835."/> 
<path d= "M 291.339745962,845. 291.339745962,835."/> 
<path d= "M 291.339745962,845. 282.679491924,840."/> 
<path d= "M 300.,850. 300.,840."/> 
<path d= "M 300.,840. 300.,830."/> 
<path d= "M 300.,850. 291.339745962,845."/> 
<path d= "M 300.,850. 291.339745962,845."/> 
<path d= "M 300.,850. 291.339745962,855."/> 
<path d= "M 300.,850. 300.,840."/> 
<path d= "M 300.,840. 300.,830."/> 
<path d= "M 300.,850. 291.339745962,845."/> 
<path d= "M 300.,850. 291.339745962,845."/> 
<path d= "M 300.,850. 291.339745962,855."/> 
<path d= "M 300.,850. 291.339745962,845."/> 
<path d= "M 291.339745962,845. 282.679491924,840."/> 
<path d= "M 300.,850. 291.339745962,855."/> 
<path d= "M 300.,850. 291.339745962,855."/> 
<path d= "M 300.,850. 300.,860."/> 
<path d= "M 300.,850. 308.660254038,845."/> 
<path d= "M 308.660254038,845. 317.320508076,840."/> 
<path d= "M 300.,850. 300.,840."/> 
<path d= "M 300.,850. 300.,840."/> 
<path d= "M 300.,850. 291.339745962,845."/> 
<path d= "M 291.339745962,845. 300.,840."/> 
<path d= "M 300.,840. 308.660254038,835."/> 
<path d= "M 291.339745962,845. 291.339745962,835."/> 
<path d= "M 291.339745962,845. 291.339745962,835."/> 
<path d= "M 291.339745962,845. 282.679491924,840."/> 
<path d= "M 300.,850. 300.,840."/> 
<path d= "M 300.,840. 300.,830."/> 
<path d= "M 300.,850. 291.339745962,845."/> 
<path d= "M 300.,850. 291.339745962,845."/> 
<path d= "M 300.,850. 291.339745962,855."/> 
<path d= "M 300.,850. 300.,840."/> 
<path d= "M 300.,840. 300.,830."/> 
<path d= "M 300.,850. 291.339745962,845."/> 
<path d= "M 300.,850. 291.339745962,845."/> 
<path d= "M 300.,850. 291.339745962,855."/> 
<path d= "M 300.,850. 291.339745962,845."/> 
<path d= "M 291.339745962,845. 282.679491924,840."/> 
<path d= "M 300.,850. 291.339745962,855."/> 
<path d= "M 300.,850. 291.339745962,855."/> 
<path d= "M 300.,850. 300.,860."/> 
<path d= "M 300.,850. 300.,840."/> 
<path d= "M 300.,840. 300.,830."/> 
<path d= "M 300.,850. 291.339745962,845."/> 
<path d= "M 300.,850. 291.339745962,845."/> 
<path d= "M 300.,850. 291.339745962,855."/> 
<path d= "M 291.339745962,855. 291.339745962,845."/> 
<path d= "M 291.339745962,845. 291.339745962,835."/> 
<path d= "M 291.339745962,855. 282.679491924,850."/> 
<path d= "M 291.339745962,855. 282.679491924,850."/> 
<path d= "M 291.339745962,855. 282.679491924,860."/> 
<path d= "M 300.,850. 291.339745962,845."/> 
<path d= "M 291.339745962,845. 282.679491924,840."/> 
<path d= "M 300.,850. 291.339745962,855."/> 
<path d= "M 300.,850. 291.339745962,855."/> 
<path d= "M 300.,850. 300.,860."/> 
<path d= "M 300.,850. 291.339745962,845."/> 
<path d= "M 291.339745962,845. 282.679491924,840."/> 
<path d= "M 300.,850. 291.339745962,855."/> 
<path d= "M 300.,850. 291.339745962,855."/> 
<path d= "M 300.,850. 300.,860."/> 
<path d= "M 300.,850. 291.339745962,855."/> 
<path d= "M 291.339745962,855. 282.679491924,860."/> 
<path d= "M 300.,850. 300.,860."/> 
<path d= "M 300.,850. 300.,860."/> 
<path d= "M 300.,850. 308.660254038,855."/> 
<path d= "M 308.660254038,855. 317.320508076,860."/> 
<path d= "M 317.320508076,860. 325.980762114,865."/> 
<path d= "M 308.660254038,855. 317.320508076,850."/> 
<path d= "M 308.660254038,855. 317.320508076,850."/> 
<path d= "M 308.660254038,855. 308.660254038,845."/> 
<path d= "M 308.660254038,845. 317.320508076,850."/> 
<path d= "M 317.320508076,850. 325.980762114,855."/> 
<path d= "M 308.660254038,845. 317.320508076,840."/> 
<path d= "M 308.660254038,845. 317.320508076,840."/> 
<path d= "M 308.660254038,845. 308.660254038,835."/> 
<path d= "M 308.660254038,855. 317.320508076,850."/> 
<path d= "M 317.320508076,850. 325.980762114,845."/> 
<path d= "M 308.660254038,855. 308.660254038,845."/> 
<path d= "M 308.660254038,855. 308.660254038,845."/> 
<path d= "M 308.660254038,855. 300.,850."/> 
<path d= "M 308.660254038,855. 317.320508076,850."/> 
<path d= "M 317.320508076,850. 325.980762114,845."/> 
<path d= "M 308.660254038,855. 308.660254038,845."/> 
<path d= "M 308.660254038,855. 308.660254038,845."/> 
<path d= "M 308.660254038,855. 300.,850."/> 
<path d= "M 308.660254038,855. 308.660254038,845."/> 
<path d= "M 308.660254038,845. 308.660254038,835."/> 
<path d= "M 308.660254038,855. 300.,850."/> 
<path d= "M 308.660254038,855. 300.,850."/> 
<path d= "M 308.660254038,855. 300.,860."/> 
<path d= "M 300.,860. 308.660254038,865."/> 
<path d= "M 308.660254038,865. 317.320508076,870."/> 
<path d= "M 300.,860. 308.660254038,855."/> 
<path d= "M 300.,860. 308.660254038,855."/> 
<path d= "M 300.,860. 300.,850."/> 
<path d= "M 300.,850. 308.660254038,855."/> 
<path d= "M 308.660254038,855. 317.320508076,860."/> 
<path d= "M 300.,850. 308.660254038,845."/> 
<path d= "M 300.,850. 308.660254038,845."/> 
<path d= "M 300.,850. 300.,840."/> 
<path d= "M 300.,860. 308.660254038,855."/> 
<path d= "M 308.660254038,855. 317.320508076,850."/> 
<path d= "M 300.,860. 300.,850."/> 
<path d= "M 300.,860. 300.,850."/> 
<path d= "M 300.,860. 291.339745962,855."/> 
<path d= "M 300.,860. 308.660254038,855."/> 
<path d= "M 308.660254038,855. 317.320508076,850."/> 
<path d= "M 300.,860. 300.,850."/> 
<path d= "M 300.,860. 300.,850."/> 
<path d= "M 300.,860. 291.339745962,855."/> 
<path d= "M 300.,860. 300.,850."/> 
<path d= "M 300.,850. 300.,840."/> 
<path d= "M 300.,860. 291.339745962,855."/> 
<path d= "M 300.,860. 291.339745962,855."/> 
<path d= "M 300.,860. 291.339745962,865."/> 
<path d= "M 308.660254038,855. 317.320508076,850."/> 
<path d= "M 317.320508076,850. 325.980762114,845."/> 
<path d= "M 308.660254038,855. 308.660254038,845."/> 
<path d= "M 308.660254038,855. 308.660254038,845."/> 
<path d= "M 308.660254038,855. 300.,850."/> 
<path d= "M 300.,850. 308.660254038,845."/> 
<path d= "M 308.660254038,845. 317.320508076,840."/> 
<path d= "M 300.,850. 300.,840."/> 
<path d= "M 300.,850. 300.,840."/> 
<path d= "M 300.,850. 291.339745962,845."/> 
<path d= "M 308.660254038,855. 308.660254038,845."/> 
<path d= "M 308.660254038,845. 308.660254038,835."/> 
<path d= "M 308.660254038,855. 300.,850."/> 
<path d= "M 308.660254038,855. 300.,850."/> 
<path d= "M 308.660254038,855. 300.,860."/> 
<path d= "M 308.660254038,855. 308.660254038,845."/> 
<path d= "M 308.660254038,845. 308.660254038,835."/> 
<path d= "M 308.660254038,855. 300.,850."/> 
<path d= "M 308.660254038,855. 300.,850."/> 
<path d= "M 308.660254038,855. 300.,860."/> 
<path d= "M 308.660254038,855. 300.,850."/> 
<path d= "M 300.,850. 291.339745962,845."/> 
<path d= "M 308.660254038,855. 300.,860."/> 
<path d= "M 308.660254038,855. 300.,860."/> 
<path d= "M 308.660254038,855. 308.660254038,865."/> 
<path d= "M 308.660254038,855. 317.320508076,850."/> 
<path d= "M 317.320508076,850. 325.980762114,845."/> 
<path d= "M 308.660254038,855. 308.660254038,845."/> 
<path d= "M 308.660254038,855. 308.660254038,845."/> 
<path d= "M 308.660254038,855. 300.,850."/> 
<path d= "M 300.,850. 308.660254038,845."/> 
<path d= "M 308.660254038,845. 317.320508076,840."/> 
<path d= "M 300.,850. 300.,840."/> 
<path d= "M 300.,850. 300.,840."/> 
<path d= "M 300.,850. 291.339745962,845."/> 
<path d= "M 308.660254038,855. 308.660254038,845."/> 
<path d= "M 308.660254038,845. 308.660254038,835."/> 
<path d= "M 308.660254038,855. 300.,850."/> 
<path d= "M 308.660254038,855. 300.,850."/> 
<path d= "M 308.660254038,855. 300.,860."/> 
<path d= "M 308.660254038,855. 308.660254038,845."/> 
<path d= "M 308.660254038,845. 308.660254038,835."/> 
<path d= "M 308.660254038,855. 300.,850."/> 
<path d= "M 308.660254038,855. 300.,850."/> 
<path d= "M 308.660254038,855. 300.,860."/> 
<path d= "M 308.660254038,855. 300.,850."/> 
<path d= "M 300.,850. 291.339745962,845."/> 
<path d= "M 308.660254038,855. 300.,860."/> 
<path d= "M 308.660254038,855. 300.,860."/> 
<path d= "M 308.660254038,855. 308.660254038,865."/> 
<path d= "M 308.660254038,855. 308.660254038,845."/> 
<path d= "M 308.660254038,845. 308.660254038,835."/> 
<path d= "M 308.660254038,855. 300.,850."/> 
<path d= "M 308.660254038,855. 300.,850."/> 
<path d= "M 308.660254038,855. 300.,860."/> 
<path d= "M 300.,860. 300.,850."/> 
<path d= "M 300.,850. 300.,840."/> 
<path d= "M 300.,860. 291.339745962,855."/> 
<path d= "M 300.,860. 291.339745962,855."/> 
<path d= "M 300.,860. 291.339745962,865."/> 
<path d= "M 308.660254038,855. 300.,850."/> 
<path d= "M 300.,850. 291.339745962,845."/> 
<path d= "M 308.660254038,855. 300.,860."/> 
<path d= "M 308.660254038,855. 300.,860."/> 
<path d= "M 308.660254038,855. 308.660254038,865."/> 
<path d= "M 308.660254038,855. 300.,850."/> 
<path d= "M 300.,850. 291.339745962,845."/> 
<path d= "M 308.660254038,855. 300.,860."/> 
<path d= "M 308.660254038,855. 300.,860."/> 
<path d= "M 308.660254038,855. 308.660254038,865."/> 
<path d= "M 308.660254038,855. 300.,860."/> 
<path d= "M 300.,860. 291.339745962,865."/> 
<path d= "M 308.660254038,855. 308.660254038,865."/> 
<path d= "M 308.660254038,855. 308.660254038,865."/> 
<path d= "M 308.660254038,855. 317.320508076,860."/> 
<path d= "M 300.,850. 308.660254038,845."/> 
<path d= "M 308.660254038,845. 317.320508076,840."/> 
<path d= "M 300.,850. 300.,840."/> 
<path d= "M 300.,850. 300.,840."/> 
<path d= "M 300.,850. 291.339745962,845."/> 
<path d= "M 291.339745962,845. 300.,840."/> 
<path d= "M 300.,840. 308.660254038,835."/> 
<path d= "M 291.339745962,845. 291.339745962,835."/> 
<path d= "M 291.339745962,845. 291.339745962,835."/> 
<path d= "M 291.339745962,845. 282.679491924,840."/> 
<path d= "M 300.,850. 300.,840."/> 
<path d= "M 300.,840. 300.,830."/> 
<path d= "M 300.,850. 291.339745962,845."/> 
<path d= "M 300.,850. 291.339745962,845."/> 
<path d= "M 300.,850. 291.339745962,855."/> 
<path d= "M 300.,850. 300.,840."/> 
<path d= "M 300.,840. 300.,830."/> 
<path d= "M 300.,850. 291.339745962,845."/> 
<path d= "M 300.,850. 291.339745962,845."/> 
<path d= "M 300.,850. 291.339745962,855."/> 
<path d= "M 300.,850. 291.339745962,845."/> 
<path d= "M 291.339745962,845. 282.679491924,840."/> 
<path d= "M 300.,850. 291.339745962,855."/> 
<path d= "M 300.,850. 291.339745962,855."/> 
<path d= "M 300.,850. 300.,860."/> 
<path d= "M 300.,860. 308.660254038,855."/> 
<path d= "M 308.660254038,855. 317.320508076,850."/> 
<path d= "M 300.,860. 300.,850."/> 
<path d= "M 300.,860. 300.,850."/> 
<path d= "M 300.,860. 291.339745962,855."/> 
<path d= "M 291.339745962,855. 300.,850."/> 
<path d= "M 300.,850. 308.660254038,845."/> 
<path d= "M 291.339745962,855. 291.339745962,845."/> 
<path d= "M 291.339745962,855. 291.339745962,845."/> 
<path d= "M 291.339745962,855. 282.679491924,850."/> 
<path d= "M 300.,860. 300.,850."/> 
<path d= "M 300.,850. 300.,840."/> 
<path d= "M 300.,860. 291.339745962,855."/> 
<path d= "M 300.,860. 291.339745962,855."/> 
<path d= "M 300.,860. 291.339745962,865."/> 
<path d= "M 300.,860. 300.,850."/> 
<path d= "M 300.,850. 300.,840."/> 
<path d= "M 300.,860. 291.339745962,855."/> 
<path d= "M 300.,860. 291.339745962,855."/> 
<path d= "M 300.,860. 291.339745962,865."/> 
<path d= "M 300.,860. 291.339745962,855."/> 
<path d= "M 291.339745962,855. 282.679491924,850."/> 
<path d= "M 300.,860. 291.339745962,865."/> 
<path d= "M 300.,860. 291.339745962,865."/> 
<path d= "M 300.,860. 300.,870."/> 
<path d= "M 300.,850. 300.,840."/> 
<path d= "M 300.,840. 300.,830."/> 
<path d= "M 300.,850. 291.339745962,845."/> 
<path d= "M 300.,850. 291.339745962,845."/> 
<path d= "M 300.,850. 291.339745962,855."/> 
<path d= "M 291.339745962,855. 291.339745962,845."/> 
<path d= "M 291.339745962,845. 291.339745962,835."/> 
<path d= "M 291.339745962,855. 282.679491924,850."/> 
<path d= "M 291.339745962,855. 282.679491924,850."/> 
<path d= "M 291.339745962,855. 282.679491924,860."/> 
<path d= "M 300.,850. 291.339745962,845."/> 
<path d= "M 291.339745962,845. 282.679491924,840."/> 
<path d= "M 300.,850. 291.339745962,855."/> 
<path d= "M 300.,850. 291.339745962,855."/> 
<path d= "M 300.,850. 300.,860."/> 
<path d= "M 300.,850. 291.339745962,845."/> 
<path d= "M 291.339745962,845. 282.679491924,840."/> 
<path d= "M 300.,850. 291.339745962,855."/> 
<path d= "M 300.,850. 291.339745962,855."/> 
<path d= "M 300.,850. 300.,860."/> 
<path d= "M 300.,850. 291.339745962,855."/> 
<path d= "M 291.339745962,855. 282.679491924,860."/> 
<path d= "M 300.,850. 300.,860."/> 
<path d= "M 300.,850. 300.,860."/> 
<path d= "M 300.,850. 308.660254038,855."/> 
<path d= "M 300.,850. 300.,840."/> 
<path d= "M 300.,840. 300.,830."/> 
<path d= "M 300.,850. 291.339745962,845."/> 
<path d= "M 300.,850. 291.339745962,845."/> 
<path d= "M 300.,850. 291.339745962,855."/> 
<path d= "M 291.339745962,855. 291.339745962,845."/> 
<path d= "M 291.339745962,845. 291.339745962,835."/> 
<path d= "M 291.339745962,855. 282.679491924,850."/> 
<path d= "M 291.339745962,855. 282.679491924,850."/> 
<path d= "M 291.339745962,855. 282.679491924,860."/> 
<path d= "M 300.,850. 291.339745962,845."/> 
<path d= "M 291.339745962,845. 282.679491924,840."/> 
<path d= "M 300.,850. 291.339745962,855."/> 
<path d= "M 300.,850. 291.339745962,855."/> 
<path d= "M 300.,850. 300.,860."/> 
<path d= "M 300.,850. 291.339745962,845."/> 
<path d= "M 291.339745962,845. 282.679491924,840."/> 
<path d= "M 300.,850. 291.339745962,855."/> 
<path d= "M 300.,850. 291.339745962,855."/> 
<path d= "M 300.,850. 300.,860."/> 
<path d= "M 300.,850. 291.339745962,855."/> 
<path d= "M 291.339745962,855. 282.679491924,860."/> 
<path d= "M 300.,850. 300.,860."/> 
<path d= "M 300.,850. 300.,860."/> 
<path d= "M 300.,850. 308.660254038,855."/> 
<path d= "M 300.,850. 291.339745962,845."/> 
<path d= "M 291.339745962,845. 282.679491924,840."/> 
<path d= "M 300.,850. 291.339745962,855."/> 
<path d= "M 300.,850. 291.339745962,855."/> 
<path d= "M 300.,850. 300.,860."/> 
<path d= "M 300.,860. 291.339745962,855."/> 
<path d= "M 291.339745962,855. 282.679491924,850."/> 
<path d= "M 300.,860. 291.339745962,865."/> 
<path d= "M 300.,860. 291.339745962,865."/> 
<path d= "M 300.,860. 300.,870."/> 
<path d= "M 300.,850. 291.339745962,855."/> 
<path d= "M 291.339745962,855. 282.679491924,860."/> 
<path d= "M 300.,850. 300.,860."/> 
<path d= "M 300.,850. 300.,860."/> 
<path d= "M 300.,850. 308.660254038,855."/> 
<path d= "M 300.,850. 291.339745962,855."/> 
<path d= "M 291.339745962,855. 282.679491924,860."/> 
<path d= "M 300.,850. 300.,860."/> 
<path d= "M 300.,850. 300.,860."/> 
<path d= "M 300.,850. 308.660254038,855."/> 
<path d= "M 300.,850. 300.,860."/> 
<path d= "M 300.,860. 300.,870."/> 
<path d= "M 300.,850. 308.660254038,855."/> 
<path d= "M 300.,850. 308.660254038,855."/> 
<path d= "M 300.,850. 308.660254038,845."/> 
<path d= "M 300.,850. 308.660254038,845."/> 
<path d= "M 308.660254038,845. 317.320508076,840."/> 
<path d= "M 300.,850. 300.,840."/> 
<path d= "M 300.,850. 300.,840."/> 
<path d= "M 300.,850. 291.339745962,845."/> 
<path d= "M 291.339745962,845. 300.,840."/> 
<path d= "M 300.,840. 308.660254038,835."/> 
<path d= "M 291.339745962,845. 291.339745962,835."/> 
<path d= "M 291.339745962,845. 291.339745962,835."/> 
<path d= "M 291.339745962,845. 282.679491924,840."/> 
<path d= "M 300.,850. 300.,840."/> 
<path d= "M 300.,840. 300.,830."/> 
<path d= "M 300.,850. 291.339745962,845."/> 
<path d= "M 300.,850. 291.339745962,845."/> 
<path d= "M 300.,850. 291.339745962,855."/> 
<path d= "M 300.,850. 300.,840."/> 
<path d= "M 300.,840. 300.,830."/> 
<path d= "M 300.,850. 291.339745962,845."/> 
<path d= "M 300.,850. 291.339745962,845."/> 
<path d= "M 300.,850. 291.339745962,855."/> 
<path d= "M 300.,850. 291.339745962,845."/> 
<path d= "M 291.339745962,845. 282.679491924,840."/> 
<path d= "M 300.,850. 291.339745962,855."/> 
<path d= "M 300.,850. 291.339745962,855."/> 
<path d= "M 300.,850. 300.,860."/> 
<path d= "M 300.,860. 308.660254038,855."/> 
<path d= "M 308.660254038,855. 317.320508076,850."/> 
<path d= "M 300.,860. 300.,850."/> 
<path d= "M 300.,860. 300.,850."/> 
<path d= "M 300.,860. 291.339745962,855."/> 
<path d= "M 291.339745962,855. 300.,850."/> 
<path d= "M 300.,850. 308.660254038,845."/> 
<path d= "M 291.339745962,855. 291.339745962,845."/> 
<path d= "M 291.339745962,855. 291.339745962,845."/> 
<path d= "M 291.339745962,855. 282.679491924,850."/> 
<path d= "M 300.,860. 300.,850."/> 
<path d= "M 300.,850. 300.,840."/> 
<path d= "M 300.,860. 291.339745962,855."/> 
<path d= "M 300.,860. 291.339745962,855."/> 
<path d= "M 300.,860. 291.339745962,865."/> 
<path d= "M 300.,860. 300.,850."/> 
<path d= "M 300.,850. 300.,840."/> 
<path d= "M 300.,860. 291.339745962,855."/> 
<path d= "M 300.,860. 291.339745962,855."/> 
<path d= "M 300.,860. 291.339745962,865."/> 
<path d= "M 300.,860. 291.339745962,855."/> 
<path d= "M 291.339745962,855. 282.679491924,850."/> 
<path d= "M 300.,860. 291.339745962,865."/> 
<path d= "M 300.,860. 291.339745962,865."/> 
<path d= "M 300.,860. 300.,870."/> 
<path d= "M 300.,850. 300.,840."/> 
<path d= "M 300.,840. 300.,830."/> 
<path d= "M 300.,850. 291.339745962,845."/> 
<path d= "M 300.,850. 291.339745962,845."/> 
<path d= "M 300.,850. 291.339745962,855."/> 
<path d= "M 291.339745962,855. 291.339745962,845."/> 
<path d= "M 291.339745962,845. 291.339745962,835."/> 
<path d= "M 291.339745962,855. 282.679491924,850."/> 
<path d= "M 291.339745962,855. 282.679491924,850."/> 
<path d= "M 291.339745962,855. 282.679491924,860."/> 
<path d= "M 300.,850. 291.339745962,845."/> 
<path d= "M 291.339745962,845. 282.679491924,840."/> 
<path d= "M 300.,850. 291.339745962,855."/> 
<path d= "M 300.,850. 291.339745962,855."/> 
<path d= "M 300.,850. 300.,860."/> 
<path d= "M 300.,850. 291.339745962,845."/> 
<path d= "M 291.339745962,845. 282.679491924,840."/> 
<path d= "M 300.,850. 291.339745962,855."/> 
<path d= "M 300.,850. 291.339745962,855."/> 
<path d= "M 300.,850. 300.,860."/> 
<path d= "M 300.,850. 291.339745962,855."/> 
<path d= "M 291.339745962,855. 282.679491924,860."/> 
<path d= "M 300.,850. 300.,860."/> 
<path d= "M 300.,850. 300.,860."/> 
<path d= "M 300.,850. 308.660254038,855."/> 
<path d= "M 300.,850. 300.,840."/> 
<path d= "M 300.,840. 300.,830."/> 
<path d= "M 300.,850. 291.339745962,845."/> 
<path d= "M 300.,850. 291.339745962,845."/> 
<path d= "M 300.,850. 291.339745962,855."/> 
<path d= "M 291.339745962,855. 291.339745962,845."/> 
<path d= "M 291.339745962,845. 291.339745962,835."/> 
<path d= "M 291.339745962,855. 282.679491924,850."/> 
<path d= "M 291.339745962,855. 282.679491924,850."/> 
<path d= "M 291.339745962,855. 282.679491924,860."/> 
<path d= "M 300.,850. 291.339745962,845."/> 
<path d= "M 291.339745962,845. 282.679491924,840."/> 
<path d= "M 300.,850. 291.339745962,855."/> 
<path d= "M 300.,850. 291.339745962,855."/> 
<path d= "M 300.,850. 300.,860."/> 
<path d= "M 300.,850. 291.339745962,845."/> 
<path d= "M 291.339745962,845. 282.679491924,840."/> 
<path d= "M 300.,850. 291.339745962,855."/> 
<path d= "M 300.,850. 291.339745962,855."/> 
<path d= "M 300.,850. 300.,860."/> 
<path d= "M 300.,850. 291.339745962,855."/> 
<path d= "M 291.339745962,855. 282.679491924,860."/> 
<path d= "M 300.,850. 300.,860."/> 
<path d= "M 300.,850. 300.,860."/> 
<path d= "M 300.,850. 308.660254038,855."/> 
<path d= "M 300.,850. 291.339745962,845."/> 
<path d= "M 291.339745962,845. 282.679491924,840."/> 
<path d= "M 300.,850. 291.339745962,855."/> 
<path d= "M 300.,850. 291.339745962,855."/> 
<path d= "M 300.,850. 300.,860."/> 
<path d= "M 300.,860. 291.339745962,855."/> 
<path d= "M 291.339745962,855. 282.679491924,850."/> 
<path d= "M 300.,860. 291.339745962,865."/> 
<path d= "M 300.,860. 291.339745962,865."/> 
<path d= "M 300.,860. 300.,870."/> 
<path d= "M 300.,850. 291.339745962,855."/> 
<path d= "M 291.339745962,855. 282.679491924,860."/> 
<path d= "M 300.,850. 300.,860."/> 
<path d= "M 300.,850. 300.,860."/> 
<path d= "M 300.,850. 308.660254038,855."/> 
<path d= "M 300.,850. 291.339745962,855."/> 
<path d= "M 291.339745962,855. 282.679491924,860."/> 
<path d= "M 300.,850. 300.,860."/> 
<path d= "M 300.,850. 300.,860."/> 
<path d= "M 300.,850. 308.660254038,855."/> 
<path d= "M 300.,850. 300.,860."/> 
<path d= "M 300.,860. 300.,870."/> 
<path d= "M 300.,850. 308.660254038,855."/> 
<path d= "M 300.,850. 308.660254038,855."/> 
<path d= "M 300.,850. 308.660254038,845."/> 
<path d= "M 300.,850. 300.,840."/> 
<path d= "M 300.,840. 300.,830."/> 
<path d= "M 300.,850. 291.339745962,845."/> 
<path d= "M 300.,850. 291.339745962,845."/> 
<path d= "M 300.,850. 291.339745962,855."/> 
<path d= "M 291.339745962,855. 291.339745962,845."/> 
<path d= "M 291.339745962,845. 291.339745962,835."/> 
<path d= "M 291.339745962,855. 282.679491924,850."/> 
<path d= "M 291.339745962,855. 282.679491924,850."/> 
<path d= "M 291.339745962,855. 282.679491924,860."/> 
<path d= "M 300.,850. 291.339745962,845."/> 
<path d= "M 291.339745962,845. 282.679491924,840."/> 
<path d= "M 300.,850. 291.339745962,855."/> 
<path d= "M 300.,850. 291.339745962,855."/> 
<path d= "M 300.,850. 300.,860."/> 
<path d= "M 300.,850. 291.339745962,845."/> 
<path d= "M 291.339745962,845. 282.679491924,840."/> 
<path d= "M 300.,850. 291.339745962,855."/> 
<path d= "M 300.,850. 291.339745962,855."/> 
<path d= "M 300.,850. 300.,860."/> 
<path d= "M 300.,850. 291.339745962,855."/> 
<path d= "M 291.339745962,855. 282.679491924,860."/> 
<path d= "M 300.,850. 300.,860."/> 
<path d= "M 300.,850. 300.,860."/> 
<path d= "M 300.,850. 308.660254038,855."/> 
<path d= "M 308.660254038,855. 308.660254038,845."/> 
<path d= "M 308.660254038,845. 308.660254038,835."/> 
<path d= "M 308.660254038,855. 300.,850."/> 
<path d= "M 308.660254038,855. 300.,850."/> 
<path d= "M 308.660254038,855. 300.,860."/> 
<path d= "M 300.,860. 300.,850."/> 
<path d= "M 300.,850. 300.,840."/> 
<path d= "M 300.,860. 291.339745962,855."/> 
<path d= "M 300.,860. 291.339745962,855."/> 
<path d= "M 300.,860. 291.339745962,865."/> 
<path d= "M 308.660254038,855. 300.,850."/> 
<path d= "M 300.,850. 291.339745962,845."/> 
<path d= "M 308.660254038,855. 300.,860."/> 
<path d= "M 308.660254038,855. 300.,860."/> 
<path d= "M 308.660254038,855. 308.660254038,865."/> 
<path d= "M 308.660254038,855. 300.,850."/> 
<path d= "M 300.,850. 291.339745962,845."/> 
<path d= "M 308.660254038,855. 300.,860."/> 
<path d= "M 308.660254038,855. 300.,860."/> 
<path d= "M 308.660254038,855. 308.660254038,865."/> 
<path d= "M 308.660254038,855. 300.,860."/> 
<path d= "M 300.,860. 291.339745962,865."/> 
<path d= "M 308.660254038,855. 308.660254038,865."/> 
<path d= "M 308.660254038,855. 308.660254038,865."/> 
<path d= "M 308.660254038,855. 317.320508076,860."/> 
<path d= "M 300.,850. 291.339745962,845."/> 
<path d= "M 291.339745962,845. 282.679491924,840."/> 
<path d= "M 300.,850. 291.339745962,855."/> 
<path d= "M 300.,850. 291.339745962,855."/> 
<path d= "M 300.,850. 300.,860."/> 
<path d= "M 300.,860. 291.339745962,855."/> 
<path d= "M 291.339745962,855. 282.679491924,850."/> 
<path d= "M 300.,860. 291.339745962,865."/> 
<path d= "M 300.,860. 291.339745962,865."/> 
<path d= "M 300.,860. 300.,870."/> 
<path d= "M 300.,850. 291.339745962,855."/> 
<path d= "M 291.339745962,855. 282.679491924,860."/> 
<path d= "M 300.,850. 300.,860."/> 
<path d= "M 300.,850. 300.,860."/> 
<path d= "M 300.,850. 308.660254038,855."/> 
<path d= "M 300.,850. 291.339745962,855."/> 
<path d= "M 291.339745962,855. 282.679491924,860."/> 
<path d= "M 300.,850. 300.,860."/> 
<path d= "M 300.,850. 300.,860."/> 
<path d= "M 300.,850. 308.660254038,855."/> 
<path d= "M 300.,850. 300.,860."/> 
<path d= "M 300.,860. 300.,870."/> 
<path d= "M 300.,850. 308.660254038,855."/> 
<path d= "M 300.,850. 308.660254038,855."/> 
<path d= "M 300.,850. 308.660254038,845."/> 
<path d= "M 300.,850. 291.339745962,845."/> 
<path d= "M 291.339745962,845. 282.679491924,840."/> 
<path d= "M 300.,850. 291.339745962,855."/> 
<path d= "M 300.,850. 291.339745962,855."/> 
<path d= "M 300.,850. 300.,860."/> 
<path d= "M 300.,860. 291.339745962,855."/> 
<path d= "M 291.339745962,855. 282.679491924,850."/> 
<path d= "M 300.,860. 291.339745962,865."/> 
<path d= "M 300.,860. 291.339745962,865."/> 
<path d= "M 300.,860. 300.,870."/> 
<path d= "M 300.,850. 291.339745962,855."/> 
<path d= "M 291.339745962,855. 282.679491924,860."/> 
<path d= "M 300.,850. 300.,860."/> 
<path d= "M 300.,850. 300.,860."/> 
<path d= "M 300.,850. 308.660254038,855."/> 
<path d= "M 300.,850. 291.339745962,855."/> 
<path d= "M 291.339745962,855. 282.679491924,860."/> 
<path d= "M 300.,850. 300.,860."/> 
<path d= "M 300.,850. 300.,860."/> 
<path d= "M 300.,850. 308.660254038,855."/> 
<path d= "M 300.,850. 300.,860."/> 
<path d= "M 300.,860. 300.,870."/> 
<path d= "M 300.,850. 308.660254038,855."/> 
<path d= "M 300.,850. 308.660254038,855."/> 
<path d= "M 300.,850. 308.660254038,845."/> 
<path d= "M 300.,850. 291.339745962,855."/> 
<path d= "M 291.339745962,855. 282.679491924,860."/> 
<path d= "M 300.,850. 300.,860."/> 
<path d= "M 300.,850. 300.,860."/> 
<path d= "M 300.,850. 308.660254038,855."/> 
<path d= "M 308.660254038,855. 300.,860."/> 
<path d= "M 300.,860. 291.339745962,865."/> 
<path d= "M 308.660254038,855. 308.660254038,865."/> 
<path d= "M 308.660254038,855. 308.660254038,865."/> 
<path d= "M 308.660254038,855. 317.320508076,860."/> 
<path d= "M 300.,850. 300.,860."/> 
<path d= "M 300.,860. 300.,870."/> 
<path d= "M 300.,850. 308.660254038,855."/> 
<path d= "M 300.,850. 308.660254038,855."/> 
<path d= "M 300.,850. 308.660254038,845."/> 
<path d= "M 300.,850. 300.,860."/> 
<path d= "M 300.,860. 300.,870."/> 
<path d= "M 300.,850. 308.660254038,855."/> 
<path d= "M 300.,850. 308.660254038,855."/> 
<path d= "M 300.,850. 308.660254038,845."/> 
<path d= "M 300.,850. 308.660254038,855."/> 
<path d= "M 308.660254038,855. 317.320508076,860."/> 
<path d= "M 300.,850. 308.660254038,845."/> 
<path d= "M 300.,850. 308.660254038,845."/> 
<path d= "M 300.,850. 300.,840."/> 
</svg>
