<?xml version="1.0" encoding="UTF-8"?>
<svg  xmlns="http://www.w3.org/2000/svg" version="1.1" width="600" height="1000" stroke="black">
<path d= "M 300.,850. 300.,840."/> 
<path d= "M 300.,840. 305.,831.339745962"/> 
<path d= "M 300.,840. 300.,830."/> 
<path d= "M 300.,830. 295.,821.339745962"/> 
<path d= "M 300.,830. 300.,820."/> 
<path d= "M 300.,820. 305.,811.339745962"/> 
<path d= "M 305.,811.339745962 313.660254038,806.339745962"/> 
<path d= "M 305.,811.339745962 310.,802.679491924"/> 
<path d= "M 310.,802.679491924 310.,792.679491924"/> 
<path d= "M 310.,802.679491924 315.,794.019237886"/> 
<path d= "M 300.,820. 300.,810."/> 
<path d= "M 300.,810. 305.,801.339745962"/> 
<path d= "M 300.,810. 300.,800."/> 
<path d= "M 300.,800. 295.,791.339745962"/> 
<path d= "M 300.,800. 300.,790."/> 
<path d= "M 300.,790. 295.,781.339745962"/> 
<path d= "M 295.,781.339745962 295.,771.339745962"/> 
<path d= "M 295.,781.339745962 290.,772.679491924"/> 
<path d= "M 290.,772.679491924 281.339745962,767.679491924"/> 
<path d= "M 290.,772.679491924 285.,764.019237886"/> 
<path d= "M 300.,790. 300.,780."/> 
<path d= "M 300.,780. 305.,771.339745962"/> 
<path d= "M 300.,780. 300.,770."/> 
<path d= "M 300.,770. 305.,761.339745962"/> 
<path d= "M 300.,770. 300.,760."/> 
<path d= "M 300.,760. 305.,751.339745962"/> 
<path d= "M 305.,751.339745962 313.660254038,746.339745962"/> 
<path d= "M 305.,751.339745962 310.,742.679491924"/> 
<path d= "M 310.,742.679491924 318.660254038,737.679491924"/> 
<path d= "M 310.,742.679491924 315.,734.019237886"/> 
<path d= "M 315.,734.019237886 323.660254038,729.019237886"/> 
<path d= "M 323.660254038,729.019237886 328.660254038,720.358983849"/> 
<path d= "M 323.660254038,729.019237886 332.320508076,724.019237886"/> 
<path d= "M 332.320508076,724.019237886 337.320508076,715.358983849"/> 
<path d= "M 332.320508076,724.019237886 340.980762114,719.019237886"/> 
<path d= "M 315.,734.019237886 320.,725.358983849"/> 
<path d= "M 320.,725.358983849 320.,715.358983849"/> 
<path d= "M 320.,725.358983849 325.,716.698729811"/> 
<path d= "M 325.,716.698729811 325.,706.698729811"/> 
<path d= "M 325.,716.698729811 330.,708.038475773"/> 
<path d= "M 330.,708.038475773 330.,698.038475773"/> 
<path d= "M 330.,698.038475773 335.,689.378221735"/> 
<path d= "M 330.,698.038475773 330.,688.038475773"/> 
<path d= "M 330.,688.038475773 325.,679.378221735"/> 
<path d= "M 330.,688.038475773 330.,678.038475773"/> 
<path d= "M 330.,708.038475773 335.,699.378221735"/> 
<path d= "M 335.,699.378221735 343.660254038,694.378221735"/> 
<path d= "M 335.,699.378221735 340.,690.717967697"/> 
<path d= "M 340.,690.717967697 340.,680.717967697"/> 
<path d= "M 340.,690.717967697 345.,682.057713659"/> 
<path d= "M 300.,760. 300.,750."/> 
<path d= "M 300.,750. 295.,741.339745962"/> 
<path d= "M 300.,750. 300.,740."/> 
<path d= "M 300.,740. 295.,731.339745962"/> 
<path d= "M 300.,740. 300.,730."/> 
<path d= "M 300.,730. 305.,721.339745962"/> 
<path d= "M 305.,721.339745962 313.660254038,716.339745962"/> 
<path d= "M 305.,721.339745962 310.,712.679491924"/> 
<path d= "M 310.,712.679491924 310.,702.679491924"/> 
<path d= "M 310.,712.679491924 315.,704.019237886"/> 
<path d= "M 300.,730. 300.,720."/> 
<path d= "M 300.,720. 295.,711.339745962"/> 
<path d= "M 300.,720. 300.,710."/> 
<path d= "M 300.,710. 295.,701.339745962"/> 
<path d= "M 300.,710. 300.,700."/> 
<path d= "M 300.,700. 305.,691.339745962"/> 
<path d= "M 305.,691.339745962 313.660254038,686.339745962"/> 
<path d= "M 305.,691.339745962 310.,682.679491924"/> 
<path d= "M 310.,682.679491924 318.660254038,677.679491924"/> 
<path d= "M 310.,682.679491924 315.,674.019237886"/> 
<path d= "M 300.,700. 300.,690."/> 
<path d= "M 300.,690. 295.,681.339745962"/> 
<path d= "M 300.,690. 300.,680."/> 
<path d= "M 300.,680. 295.,671.339745962"/> 
<path d= "M 300.,680. 300.,670."/> 
<path d= "M 300.,670. 295.,661.339745962"/> 
<path d= "M 295.,661.339745962 295.,651.339745962"/> 
<path d= "M 295.,661.339745962 290.,652.679491924"/> 
<path d= "M 290.,652.679491924 281.339745962,647.679491924"/> 
<path d= "M 290.,652.679491924 285.,644.019237886"/> 
<path d= "M 285.,644.019237886 285.,634.019237886"/> 
<path d= "M 285.,634.019237886 290.,625.358983849"/> 
<path d= "M 285.,634.019237886 285.,624.019237886"/> 
<path d= "M 285.,624.019237886 280.,615.358983849"/> 
<path d= "M 285.,624.019237886 285.,614.019237886"/> 
<path d= "M 285.,644.019237886 280.,635.358983849"/> 
<path d= "M 280.,635.358983849 280.,625.358983849"/> 
<path d= "M 280.,635.358983849 275.,626.698729811"/> 
<path d= "M 275.,626.698729811 275.,616.698729811"/> 
<path d= "M 275.,626.698729811 270.,618.038475773"/> 
<path d= "M 270.,618.038475773 261.339745962,613.038475773"/> 
<path d= "M 261.339745962,613.038475773 256.339745962,604.378221735"/> 
<path d= "M 261.339745962,613.038475773 252.679491924,608.038475773"/> 
<path d= "M 252.679491924,608.038475773 247.679491924,599.378221735"/> 
<path d= "M 252.679491924,608.038475773 244.019237886,603.038475773"/> 
<path d= "M 270.,618.038475773 265.,609.378221735"/> 
<path d= "M 265.,609.378221735 265.,599.378221735"/> 
<path d= "M 265.,609.378221735 260.,600.717967697"/> 
<path d= "M 260.,600.717967697 251.339745962,595.717967697"/> 
<path d= "M 260.,600.717967697 255.,592.057713659"/> 
<path d= "M 300.,670. 300.,660."/> 
<path d= "M 300.,660. 295.,651.339745962"/> 
<path d= "M 300.,660. 300.,650."/> 
<path d= "M 300.,650. 295.,641.339745962"/> 
<path d= "M 300.,650. 300.,640."/> 
<path d= "M 300.,640. 295.,631.339745962"/> 
<path d= "M 295.,631.339745962 295.,621.339745962"/> 
<path d= "M 295.,631.339745962 290.,622.679491924"/> 
<path d= "M 290.,622.679491924 281.339745962,617.679491924"/> 
<path d= "M 290.,622.679491924 285.,614.019237886"/> 
<path d= "M 300.,640. 300.,630."/> 
<path d= "M 300.,630. 295.,621.339745962"/> 
<path d= "M 300.,630. 300.,620."/> 
<path d= "M 300.,620. 295.,611.339745962"/> 
<path d= "M 300.,620. 300.,610."/> 
<path d= "M 300.,610. 295.,601.339745962"/> 
<path d= "M 295.,601.339745962 295.,591.339745962"/> 
<path d= "M 295.,601.339745962 290.,592.679491924"/> 
<path d= "M 290.,592.679491924 281.339745962,587.679491924"/> 
<path d= "M 290.,592.679491924 285.,584.019237886"/> 
<path d= "M 300.,610. 300.,600."/> 
<path d= "M 300.,600. 305.,591.339745962"/> 
<path d= "M 300.,600. 300.,590."/> 
<path d= "M 300.,590. 295.,581.339745962"/> 
<path d= "M 300.,590. 300.,580."/> 
<path d= "M 300.,580. 305.,571.339745962"/> 
<path d= "M 305.,571.339745962 313.660254038,566.339745962"/> 
<path d= "M 305.,571.339745962 310.,562.679491924"/> 
<path d= "M 310.,562.679491924 310.,552.679491924"/> 
<path d= "M 310.,562.679491924 315.,554.019237886"/> 
<path d= "M 315.,554.019237886 323.660254038,549.019237886"/> 
<path d= "M 323.660254038,549.019237886 333.660254038,549.019237886"/> 
<path d= "M 323.660254038,549.019237886 332.320508076,544.019237886"/> 
<path d= "M 332.320508076,544.019237886 342.320508076,544.019237886"/> 
<path d= "M 332.320508076,544.019237886 340.980762114,539.019237886"/> 
<path d= "M 315.,554.019237886 320.,545.358983849"/> 
<path d= "M 320.,545.358983849 320.,535.358983849"/> 
<path d= "M 320.,545.358983849 325.,536.698729811"/> 
<path d= "M 325.,536.698729811 333.660254038,531.698729811"/> 
<path d= "M 325.,536.698729811 330.,528.038475773"/> 
<path d= "M 330.,528.038475773 330.,518.038475773"/> 
<path d= "M 330.,518.038475773 335.,509.378221735"/> 
<path d= "M 330.,518.038475773 330.,508.038475773"/> 
<path d= "M 330.,508.038475773 325.,499.378221735"/> 
<path d= "M 330.,508.038475773 330.,498.038475773"/> 
<path d= "M 330.,528.038475773 335.,519.378221735"/> 
<path d= "M 335.,519.378221735 343.660254038,514.378221735"/> 
<path d= "M 335.,519.378221735 340.,510.717967697"/> 
<path d= "M 340.,510.717967697 340.,500.717967697"/> 
<path d= "M 340.,510.717967697 345.,502.057713659"/> 
<path d= "M 345.,502.057713659 353.660254038,497.057713659"/> 
<path d= "M 353.660254038,497.057713659 363.660254038,497.057713659"/> 
<path d= "M 353.660254038,497.057713659 362.320508076,492.057713659"/> 
<path d= "M 362.320508076,492.057713659 367.320508076,483.397459622"/> 
<path d= "M 362.320508076,492.057713659 370.980762114,487.057713659"/> 
<path d= "M 370.980762114,487.057713659 380.980762114,487.057713659"/> 
<path d= "M 380.980762114,487.057713659 389.641016151,482.057713659"/> 
<path d= "M 380.980762114,487.057713659 390.980762114,487.057713659"/> 
<path d= "M 390.980762114,487.057713659 399.641016151,492.057713659"/> 
<path d= "M 390.980762114,487.057713659 400.980762114,487.057713659"/> 
<path d= "M 370.980762114,487.057713659 379.641016151,482.057713659"/> 
<path d= "M 379.641016151,482.057713659 389.641016151,482.057713659"/> 
<path d= "M 379.641016151,482.057713659 388.301270189,477.057713659"/> 
<path d= "M 388.301270189,477.057713659 393.301270189,468.397459622"/> 
<path d= "M 388.301270189,477.057713659 396.961524227,472.057713659"/> 
<path d= "M 396.961524227,472.057713659 401.961524227,463.397459622"/> 
<path d= "M 401.961524227,463.397459622 410.621778265,458.397459622"/> 
<path d= "M 401.961524227,463.397459622 406.961524227,454.737205584"/> 
<path d= "M 406.961524227,454.737205584 406.961524227,444.737205584"/> 
<path d= "M 406.961524227,454.737205584 411.961524227,446.076951546"/> 
<path d= "M 396.961524227,472.057713659 405.621778265,467.057713659"/> 
<path d= "M 405.621778265,467.057713659 415.621778265,467.057713659"/> 
<path d= "M 405.621778265,467.057713659 414.282032303,462.057713659"/> 
<path d= "M 414.282032303,462.057713659 419.282032303,453.397459622"/> 
<path d= "M 414.282032303,462.057713659 422.942286341,457.057713659"/> 
<path d= "M 345.,502.057713659 350.,493.397459622"/> 
<path d= "M 350.,493.397459622 358.660254038,488.397459622"/> 
<path d= "M 350.,493.397459622 355.,484.737205584"/> 
<path d= "M 355.,484.737205584 355.,474.737205584"/> 
<path d= "M 355.,484.737205584 360.,476.076951546"/> 
<path d= "M 360.,476.076951546 368.660254038,471.076951546"/> 
<path d= "M 368.660254038,471.076951546 378.660254038,471.076951546"/> 
<path d= "M 368.660254038,471.076951546 377.320508076,466.076951546"/> 
<path d= "M 377.320508076,466.076951546 382.320508076,457.416697508"/> 
<path d= "M 377.320508076,466.076951546 385.980762114,461.076951546"/> 
<path d= "M 360.,476.076951546 365.,467.416697508"/> 
<path d= "M 365.,467.416697508 365.,457.416697508"/> 
<path d= "M 365.,467.416697508 370.,458.75644347"/> 
<path d= "M 370.,458.75644347 370.,448.75644347"/> 
<path d= "M 370.,458.75644347 375.,450.096189432"/> 
<path d= "M 375.,450.096189432 375.,440.096189432"/> 
<path d= "M 375.,440.096189432 380.,431.435935394"/> 
<path d= "M 375.,440.096189432 375.,430.096189432"/> 
<path d= "M 375.,430.096189432 370.,421.435935394"/> 
<path d= "M 375.,430.096189432 375.,420.096189432"/> 
<path d= "M 375.,450.096189432 380.,441.435935394"/> 
<path d= "M 380.,441.435935394 388.660254038,436.435935394"/> 
<path d= "M 380.,441.435935394 385.,432.775681357"/> 
<path d= "M 385.,432.775681357 393.660254038,427.775681357"/> 
<path d= "M 385.,432.775681357 390.,424.115427319"/> 
<path d= "M 390.,424.115427319 390.,414.115427319"/> 
<path d= "M 390.,414.115427319 395.,405.455173281"/> 
<path d= "M 390.,414.115427319 390.,404.115427319"/> 
<path d= "M 390.,404.115427319 385.,395.455173281"/> 
<path d= "M 390.,404.115427319 390.,394.115427319"/> 
<path d= "M 390.,394.115427319 395.,385.455173281"/> 
<path d= "M 395.,385.455173281 403.660254038,380.455173281"/> 
<path d= "M 395.,385.455173281 400.,376.794919243"/> 
<path d= "M 400.,376.794919243 400.,366.794919243"/> 
<path d= "M 400.,376.794919243 405.,368.134665205"/> 
<path d= "M 390.,394.115427319 390.,384.115427319"/> 
<path d= "M 390.,384.115427319 395.,375.455173281"/> 
<path d= "M 390.,384.115427319 390.,374.115427319"/> 
<path d= "M 390.,374.115427319 395.,365.455173281"/> 
<path d= "M 390.,374.115427319 390.,364.115427319"/> 
<path d= "M 390.,364.115427319 385.,355.455173281"/> 
<path d= "M 385.,355.455173281 385.,345.455173281"/> 
<path d= "M 385.,355.455173281 380.,346.794919243"/> 
<path d= "M 380.,346.794919243 371.339745962,341.794919243"/> 
<path d= "M 380.,346.794919243 375.,338.134665205"/> 
<path d= "M 390.,364.115427319 390.,354.115427319"/> 
<path d= "M 390.,354.115427319 395.,345.455173281"/> 
<path d= "M 390.,354.115427319 390.,344.115427319"/> 
<path d= "M 390.,344.115427319 385.,335.455173281"/> 
<path d= "M 390.,344.115427319 390.,334.115427319"/> 
<path d= "M 390.,424.115427319 395.,415.455173281"/> 
<path d= "M 395.,415.455173281 403.660254038,410.455173281"/> 
<path d= "M 395.,415.455173281 400.,406.794919243"/> 
<path d= "M 400.,406.794919243 400.,396.794919243"/> 
<path d= "M 400.,406.794919243 405.,398.134665205"/> 
<path d= "M 405.,398.134665205 413.660254038,393.134665205"/> 
<path d= "M 413.660254038,393.134665205 423.660254038,393.134665205"/> 
<path d= "M 413.660254038,393.134665205 422.320508076,388.134665205"/> 
<path d= "M 422.320508076,388.134665205 427.320508076,379.474411167"/> 
<path d= "M 422.320508076,388.134665205 430.980762114,383.134665205"/> 
<path d= "M 405.,398.134665205 410.,389.474411167"/> 
<path d= "M 410.,389.474411167 410.,379.474411167"/> 
<path d= "M 410.,389.474411167 415.,380.81415713"/> 
<path d= "M 415.,380.81415713 415.,370.81415713"/> 
<path d= "M 415.,380.81415713 420.,372.153903092"/> 
<path d= "M 420.,372.153903092 420.,362.153903092"/> 
<path d= "M 420.,362.153903092 425.,353.493649054"/> 
<path d= "M 420.,362.153903092 420.,352.153903092"/> 
<path d= "M 420.,352.153903092 415.,343.493649054"/> 
<path d= "M 420.,352.153903092 420.,342.153903092"/> 
<path d= "M 420.,372.153903092 425.,363.493649054"/> 
<path d= "M 425.,363.493649054 425.,353.493649054"/> 
<path d= "M 425.,363.493649054 430.,354.833395016"/> 
<path d= "M 430.,354.833395016 438.660254038,349.833395016"/> 
<path d= "M 430.,354.833395016 435.,346.173140978"/> 
<path d= "M 300.,580. 300.,570."/> 
<path d= "M 300.,570. 305.,561.339745962"/> 
<path d= "M 300.,570. 300.,560."/> 
<path d= "M 300.,560. 295.,551.339745962"/> 
<path d= "M 300.,560. 300.,550."/> 
<path d= "M 300.,550. 305.,541.339745962"/> 
<path d= "M 305.,541.339745962 313.660254038,536.339745962"/> 
<path d= "M 305.,541.339745962 310.,532.679491924"/> 
<path d= "M 310.,532.679491924 310.,522.679491924"/> 
<path d= "M 310.,532.679491924 315.,524.019237886"/> 
<path d= "M 300.,550. 300.,540."/> 
<path d= "M 300.,540. 305.,531.339745962"/> 
<path d= "M 300.,540. 300.,530."/> 
<path d= "M 300.,530. 305.,521.339745962"/> 
<path d= "M 300.,530. 300.,520."/> 
<path d= "M 300.,520. 305.,511.339745962"/> 
<path d= "M 305.,511.339745962 313.660254038,506.339745962"/> 
<path d= "M 305.,511.339745962 310.,502.679491924"/> 
<path d= "M 310.,502.679491924 310.,492.679491924"/> 
<path d= "M 310.,502.679491924 315.,494.019237886"/> 
<path d= "M 300.,520. 300.,510."/> 
<path d= "M 300.,510. 295.,501.339745962"/> 
<path d= "M 300.,510. 300.,500."/> 
<path d= "M 300.,500. 305.,491.339745962"/> 
<path d= "M 300.,500. 300.,490."/> 
<path d= "M 300.,490. 305.,481.339745962"/> 
<path d= "M 305.,481.339745962 313.660254038,476.339745962"/> 
<path d= "M 305.,481.339745962 310.,472.679491924"/> 
<path d= "M 310.,472.679491924 310.,462.679491924"/> 
<path d= "M 310.,472.679491924 315.,464.019237886"/> 
<path d= "M 315.,464.019237886 323.660254038,459.019237886"/> 
<path d= "M 323.660254038,459.019237886 333.660254038,459.019237886"/> 
<path d= "M 323.660254038,459.019237886 332.320508076,454.019237886"/> 
<path d= "M 332.320508076,454.019237886 342.320508076,454.019237886"/> 
<path d= "M 332.320508076,454.019237886 340.980762114,449.019237886"/> 
<path d= "M 315.,464.019237886 320.,455.358983849"/> 
<path d= "M 320.,455.358983849 320.,445.358983849"/> 
<path d= "M 320.,455.358983849 325.,446.698729811"/> 
<path d= "M 325.,446.698729811 333.660254038,441.698729811"/> 
<path d= "M 325.,446.698729811 330.,438.038475773"/> 
<path d= "M 330.,438.038475773 330.,428.038475773"/> 
<path d= "M 330.,428.038475773 335.,419.378221735"/> 
<path d= "M 330.,428.038475773 330.,418.038475773"/> 
<path d= "M 330.,418.038475773 325.,409.378221735"/> 
<path d= "M 330.,418.038475773 330.,408.038475773"/> 
<path d= "M 330.,438.038475773 335.,429.378221735"/> 
<path d= "M 335.,429.378221735 343.660254038,424.378221735"/> 
<path d= "M 335.,429.378221735 340.,420.717967697"/> 
<path d= "M 340.,420.717967697 340.,410.717967697"/> 
<path d= "M 340.,420.717967697 345.,412.057713659"/> 
<path d= "M 300.,490. 300.,480."/> 
<path d= "M 300.,480. 305.,471.339745962"/> 
<path d= "M 300.,480. 300.,470."/> 
<path d= "M 300.,470. 295.,461.339745962"/> 
<path d= "M 300.,470. 300.,460."/> 
<path d= "M 300.,460. 305.,451.339745962"/> 
<path d= "M 305.,451.339745962 313.660254038,446.339745962"/> 
<path d= "M 305.,451.339745962 310.,442.679491924"/> 
<path d= "M 310.,442.679491924 310.,432.679491924"/> 
<path d= "M 310.,442.679491924 315.,434.019237886"/> 
<path d= "M 300.,460. 300.,450."/> 
<path d= "M 300.,450. 295.,441.339745962"/> 
<path d= "M 300.,450. 300.,440."/> 
<path d= "M 300.,440. 295.,431.339745962"/> 
<path d= "M 300.,440. 300.,430."/> 
<path d= "M 300.,430. 295.,421.339745962"/> 
<path d= "M 295.,421.339745962 295.,411.339745962"/> 
<path d= "M 295.,421.339745962 290.,412.679491924"/> 
<path d= "M 290.,412.679491924 281.339745962,407.679491924"/> 
<path d= "M 290.,412.679491924 285.,404.019237886"/> 
<path d= "M 300.,430. 300.,420."/> 
<path d= "M 300.,420. 295.,411.339745962"/> 
<path d= "M 300.,420. 300.,410."/> 
<path d= "M 300.,410. 295.,401.339745962"/> 
<path d= "M 300.,410. 300.,400."/> 
<path d= "M 300.,400. 295.,391.339745962"/> 
<path d= "M 295.,391.339745962 295.,381.339745962"/> 
<path d= "M 295.,391.339745962 290.,382.679491924"/> 
<path d= "M 290.,382.679491924 290.,372.679491924"/> 
<path d= "M 290.,382.679491924 285.,374.019237886"/> 
<path d= "M 285.,374.019237886 285.,364.019237886"/> 
<path d= "M 285.,364.019237886 280.,355.358983849"/> 
<path d= "M 285.,364.019237886 285.,354.019237886"/> 
<path d= "M 285.,354.019237886 290.,345.358983849"/> 
<path d= "M 285.,354.019237886 285.,344.019237886"/> 
<path d= "M 285.,374.019237886 280.,365.358983849"/> 
<path d= "M 280.,365.358983849 280.,355.358983849"/> 
<path d= "M 280.,365.358983849 275.,356.698729811"/> 
<path d= "M 275.,356.698729811 266.339745962,351.698729811"/> 
<path d= "M 275.,356.698729811 270.,348.038475773"/> 
<path d= "M 270.,348.038475773 261.339745962,343.038475773"/> 
<path d= "M 261.339745962,343.038475773 256.339745962,334.378221735"/> 
<path d= "M 261.339745962,343.038475773 252.679491924,338.038475773"/> 
<path d= "M 252.679491924,338.038475773 247.679491924,329.378221735"/> 
<path d= "M 252.679491924,338.038475773 244.019237886,333.038475773"/> 
<path d= "M 270.,348.038475773 265.,339.378221735"/> 
<path d= "M 265.,339.378221735 265.,329.378221735"/> 
<path d= "M 265.,339.378221735 260.,330.717967697"/> 
<path d= "M 260.,330.717967697 251.339745962,325.717967697"/> 
<path d= "M 260.,330.717967697 255.,322.057713659"/> 
<path d= "M 300.,400. 300.,390."/> 
<path d= "M 300.,390. 305.,381.339745962"/> 
<path d= "M 300.,390. 300.,380."/> 
<path d= "M 300.,380. 295.,371.339745962"/> 
<path d= "M 300.,380. 300.,370."/> 
<path d= "M 300.,370. 305.,361.339745962"/> 
<path d= "M 305.,361.339745962 313.660254038,356.339745962"/> 
<path d= "M 305.,361.339745962 310.,352.679491924"/> 
<path d= "M 310.,352.679491924 310.,342.679491924"/> 
<path d= "M 310.,352.679491924 315.,344.019237886"/> 
<path d= "M 300.,370. 300.,360."/> 
<path d= "M 300.,360. 305.,351.339745962"/> 
<path d= "M 300.,360. 300.,350."/> 
<path d= "M 300.,350. 295.,341.339745962"/> 
<path d= "M 300.,350. 300.,340."/> 
<path d= "M 300.,340. 305.,331.339745962"/> 
<path d= "M 305.,331.339745962 313.660254038,326.339745962"/> 
<path d= "M 305.,331.339745962 310.,322.679491924"/> 
<path d= "M 310.,322.679491924 318.660254038,317.679491924"/> 
<path d= "M 310.,322.679491924 315.,314.019237886"/> 
<path d= "M 300.,340. 300.,330."/> 
<path d= "M 300.,330. 305.,321.339745962"/> 
<path d= "M 300.,330. 300.,320."/> 
<path d= "M 300.,320. 295.,311.339745962"/> 
<path d= "M 300.,320. 300.,310."/> 
<path d= "M 300.,310. 305.,301.339745962"/> 
<path d= "M 305.,301.339745962 313.660254038,296.339745962"/> 
<path d= "M 305.,301.339745962 310.,292.679491924"/> 
<path d= "M 310.,292.679491924 310.,282.679491924"/> 
<path d= "M 310.,292.679491924 315.,284.019237886"/> 
<path d= "M 315.,284.019237886 323.660254038,279.019237886"/> 
<path d= "M 323.660254038,279.019237886 333.660254038,279.019237886"/> 
<path d= "M 323.660254038,279.019237886 332.320508076,274.019237886"/> 
<path d= "M 332.320508076,274.019237886 337.320508076,265.358983849"/> 
<path d= "M 332.320508076,274.019237886 340.980762114,269.019237886"/> 
<path d= "M 315.,284.019237886 320.,275.358983849"/> 
<path d= "M 320.,275.358983849 328.660254038,270.358983849"/> 
<path d= "M 320.,275.358983849 325.,266.698729811"/> 
<path d= "M 325.,266.698729811 325.,256.698729811"/> 
<path d= "M 325.,266.698729811 330.,258.038475773"/> 
<path d= "M 330.,258.038475773 330.,248.038475773"/> 
<path d= "M 330.,248.038475773 335.,239.378221735"/> 
<path d= "M 330.,248.038475773 330.,238.038475773"/> 
<path d= "M 330.,238.038475773 325.,229.378221735"/> 
<path d= "M 330.,238.038475773 330.,228.038475773"/> 
<path d= "M 330.,258.038475773 335.,249.378221735"/> 
<path d= "M 335.,249.378221735 343.660254038,244.378221735"/> 
<path d= "M 335.,249.378221735 340.,240.717967697"/> 
<path d= "M 340.,240.717967697 340.,230.717967697"/> 
<path d= "M 340.,240.717967697 345.,232.057713659"/> 
<path d= "M 345.,232.057713659 353.660254038,227.057713659"/> 
<path d= "M 353.660254038,227.057713659 363.660254038,227.057713659"/> 
<path d= "M 353.660254038,227.057713659 362.320508076,222.057713659"/> 
<path d= "M 362.320508076,222.057713659 367.320508076,213.397459622"/> 
<path d= "M 362.320508076,222.057713659 370.980762114,217.057713659"/> 
<path d= "M 370.980762114,217.057713659 380.980762114,217.057713659"/> 
<path d= "M 380.980762114,217.057713659 389.641016151,222.057713659"/> 
<path d= "M 380.980762114,217.057713659 390.980762114,217.057713659"/> 
<path d= "M 390.980762114,217.057713659 399.641016151,222.057713659"/> 
<path d= "M 390.980762114,217.057713659 400.980762114,217.057713659"/> 
<path d= "M 370.980762114,217.057713659 379.641016151,212.057713659"/> 
<path d= "M 379.641016151,212.057713659 384.641016151,203.397459622"/> 
<path d= "M 379.641016151,212.057713659 388.301270189,207.057713659"/> 
<path d= "M 388.301270189,207.057713659 393.301270189,198.397459622"/> 
<path d= "M 388.301270189,207.057713659 396.961524227,202.057713659"/> 
<path d= "M 396.961524227,202.057713659 406.961524227,202.057713659"/> 
<path d= "M 406.961524227,202.057713659 415.621778265,207.057713659"/> 
<path d= "M 406.961524227,202.057713659 416.961524227,202.057713659"/> 
<path d= "M 416.961524227,202.057713659 425.621778265,197.057713659"/> 
<path d= "M 416.961524227,202.057713659 426.961524227,202.057713659"/> 
<path d= "M 396.961524227,202.057713659 405.621778265,197.057713659"/> 
<path d= "M 405.621778265,197.057713659 415.621778265,197.057713659"/> 
<path d= "M 405.621778265,197.057713659 414.282032303,192.057713659"/> 
<path d= "M 414.282032303,192.057713659 424.282032303,192.057713659"/> 
<path d= "M 414.282032303,192.057713659 422.942286341,187.057713659"/> 
<path d= "M 345.,232.057713659 350.,223.397459622"/> 
<path d= "M 350.,223.397459622 358.660254038,218.397459622"/> 
<path d= "M 350.,223.397459622 355.,214.737205584"/> 
<path d= "M 355.,214.737205584 355.,204.737205584"/> 
<path d= "M 355.,214.737205584 360.,206.076951546"/> 
<path d= "M 360.,206.076951546 368.660254038,201.076951546"/> 
<path d= "M 368.660254038,201.076951546 378.660254038,201.076951546"/> 
<path d= "M 368.660254038,201.076951546 377.320508076,196.076951546"/> 
<path d= "M 377.320508076,196.076951546 382.320508076,187.416697508"/> 
<path d= "M 377.320508076,196.076951546 385.980762114,191.076951546"/> 
<path d= "M 360.,206.076951546 365.,197.416697508"/> 
<path d= "M 365.,197.416697508 373.660254038,192.416697508"/> 
<path d= "M 365.,197.416697508 370.,188.75644347"/> 
<path d= "M 370.,188.75644347 370.,178.75644347"/> 
<path d= "M 370.,188.75644347 375.,180.096189432"/> 
<path d= "M 375.,180.096189432 383.660254038,175.096189432"/> 
<path d= "M 383.660254038,175.096189432 393.660254038,175.096189432"/> 
<path d= "M 383.660254038,175.096189432 392.320508076,170.096189432"/> 
<path d= "M 392.320508076,170.096189432 397.320508076,161.435935394"/> 
<path d= "M 392.320508076,170.096189432 400.980762114,165.096189432"/> 
<path d= "M 375.,180.096189432 380.,171.435935394"/> 
<path d= "M 380.,171.435935394 388.660254038,166.435935394"/> 
<path d= "M 380.,171.435935394 385.,162.775681357"/> 
<path d= "M 385.,162.775681357 385.,152.775681357"/> 
<path d= "M 385.,162.775681357 390.,154.115427319"/> 
<path d= "M 390.,154.115427319 390.,144.115427319"/> 
<path d= "M 390.,144.115427319 395.,135.455173281"/> 
<path d= "M 390.,144.115427319 390.,134.115427319"/> 
<path d= "M 390.,134.115427319 385.,125.455173281"/> 
<path d= "M 390.,134.115427319 390.,124.115427319"/> 
<path d= "M 390.,124.115427319 395.,115.455173281"/> 
<path d= "M 395.,115.455173281 403.660254038,110.455173281"/> 
<path d= "M 395.,115.455173281 400.,106.794919243"/> 
<path d= "M 400.,106.794919243 400.,96.7949192431"/> 
<path d= "M 400.,106.794919243 405.,98.1346652053"/> 
<path d= "M 390.,124.115427319 390.,114.115427319"/> 
<path d= "M 390.,114.115427319 385.,105.455173281"/> 
<path d= "M 390.,114.115427319 390.,104.115427319"/> 
<path d= "M 390.,104.115427319 385.,95.455173281"/> 
<path d= "M 390.,104.115427319 390.,94.1154273188"/> 
<path d= "M 390.,94.1154273188 385.,85.455173281"/> 
<path d= "M 385.,85.455173281 385.,75.455173281"/> 
<path d= "M 385.,85.455173281 380.,76.7949192431"/> 
<path d= "M 380.,76.7949192431 371.339745962,71.7949192431"/> 
<path d= "M 380.,76.7949192431 375.,68.1346652053"/> 
<path d= "M 390.,94.1154273188 390.,84.1154273188"/> 
<path d= "M 390.,84.1154273188 395.,75.455173281"/> 
<path d= "M 390.,84.1154273188 390.,74.1154273188"/> 
<path d= "M 390.,74.1154273188 385.,65.455173281"/> 
<path d= "M 390.,74.1154273188 390.,64.1154273188"/> 
<path d= "M 390.,154.115427319 395.,145.455173281"/> 
<path d= "M 395.,145.455173281 403.660254038,140.455173281"/> 
<path d= "M 395.,145.455173281 400.,136.794919243"/> 
<path d= "M 400.,136.794919243 400.,126.794919243"/> 
<path d= "M 400.,136.794919243 405.,128.134665205"/> 
<path d= "M 405.,128.134665205 413.660254038,123.134665205"/> 
<path d= "M 413.660254038,123.134665205 423.660254038,123.134665205"/> 
<path d= "M 413.660254038,123.134665205 422.320508076,118.134665205"/> 
<path d= "M 422.320508076,118.134665205 432.320508076,118.134665205"/> 
<path d= "M 422.320508076,118.134665205 430.980762114,113.134665205"/> 
<path d= "M 405.,128.134665205 410.,119.474411167"/> 
<path d= "M 410.,119.474411167 418.660254038,114.474411167"/> 
<path d= "M 410.,119.474411167 415.,110.81415713"/> 
<path d= "M 415.,110.81415713 415.,100.81415713"/> 
<path d= "M 415.,110.81415713 420.,102.153903092"/> 
<path d= "M 420.,102.153903092 420.,92.1539030917"/> 
<path d= "M 420.,92.1539030917 425.,83.4936490539"/> 
<path d= "M 420.,92.1539030917 420.,82.1539030917"/> 
<path d= "M 420.,82.1539030917 415.,73.4936490539"/> 
<path d= "M 420.,82.1539030917 420.,72.1539030917"/> 
<path d= "M 420.,102.153903092 425.,93.4936490539"/> 
<path d= "M 425.,93.4936490539 433.660254038,88.4936490539"/> 
<path d= "M 425.,93.4936490539 430.,84.833395016"/> 
<path d= "M 430.,84.833395016 430.,74.833395016"/> 
<path d= "M 430.,84.833395016 435.,76.1731409782"/> 
<path d= "M 300.,310. 300.,300."/> 
<path d= "M 300.,300. 305.,291.339745962"/> 
<path d= "M 300.,300. 300.,290."/> 
<path d= "M 300.,290. 295.,281.339745962"/> 
<path d= "M 300.,290. 300.,280."/> 
<path d= "M 300.,280. 295.,271.339745962"/> 
<path d= "M 295.,271.339745962 295.,261.339745962"/> 
<path d= "M 295.,271.339745962 290.,262.679491924"/> 
<path d= "M 290.,262.679491924 281.339745962,257.679491924"/> 
<path d= "M 290.,262.679491924 285.,254.019237886"/> 
<path d= "M 300.,280. 300.,270."/> 
<path d= "M 300.,270. 305.,261.339745962"/> 
<path d= "M 300.,270. 300.,260."/> 
<path d= "M 300.,260. 295.,251.339745962"/> 
<path d= "M 300.,260. 300.,250."/> 
<path d= "M 300.,250. 295.,241.339745962"/> 
<path d= "M 295.,241.339745962 286.339745962,236.339745962"/> 
<path d= "M 295.,241.339745962 290.,232.679491924"/> 
<path d= "M 290.,232.679491924 281.339745962,227.679491924"/> 
<path d= "M 290.,232.679491924 285.,224.019237886"/> 
<path d= "M 300.,250. 300.,240."/> 
<path d= "M 300.,240. 305.,231.339745962"/> 
<path d= "M 300.,240. 300.,230."/> 
<path d= "M 300.,230. 295.,221.339745962"/> 
<path d= "M 300.,230. 300.,220."/> 
<path d= "M 300.,220. 305.,211.339745962"/> 
<path d= "M 305.,211.339745962 313.660254038,206.339745962"/> 
<path d= "M 305.,211.339745962 310.,202.679491924"/> 
<path d= "M 310.,202.679491924 318.660254038,197.679491924"/> 
<path d= "M 310.,202.679491924 315.,194.019237886"/> 
<path d= "M 315.,194.019237886 323.660254038,189.019237886"/> 
<path d= "M 323.660254038,189.019237886 333.660254038,189.019237886"/> 
<path d= "M 323.660254038,189.019237886 332.320508076,184.019237886"/> 
<path d= "M 332.320508076,184.019237886 337.320508076,175.358983849"/> 
<path d= "M 332.320508076,184.019237886 340.980762114,179.019237886"/> 
<path d= "M 315.,194.019237886 320.,185.358983849"/> 
<path d= "M 320.,185.358983849 320.,175.358983849"/> 
<path d= "M 320.,185.358983849 325.,176.698729811"/> 
<path d= "M 325.,176.698729811 333.660254038,171.698729811"/> 
<path d= "M 325.,176.698729811 330.,168.038475773"/> 
<path d= "M 330.,168.038475773 330.,158.038475773"/> 
<path d= "M 330.,158.038475773 325.,149.378221735"/> 
<path d= "M 330.,158.038475773 330.,148.038475773"/> 
<path d= "M 330.,148.038475773 325.,139.378221735"/> 
<path d= "M 330.,148.038475773 330.,138.038475773"/> 
<path d= "M 330.,168.038475773 335.,159.378221735"/> 
<path d= "M 335.,159.378221735 335.,149.378221735"/> 
<path d= "M 335.,159.378221735 340.,150.717967697"/> 
<path d= "M 340.,150.717967697 340.,140.717967697"/> 
<path d= "M 340.,150.717967697 345.,142.057713659"/> 
<path d= "M 300.,220. 300.,210."/> 
<path d= "M 300.,210. 305.,201.339745962"/> 
<path d= "M 300.,210. 300.,200."/> 
<path d= "M 300.,200. 305.,191.339745962"/> 
<path d= "M 300.,200. 300.,190."/> 
<path d= "M 300.,190. 305.,181.339745962"/> 
<path d= "M 305.,181.339745962 305.,171.339745962"/> 
<path d= "M 305.,181.339745962 310.,172.679491924"/> 
<path d= "M 310.,172.679491924 310.,162.679491924"/> 
<path d= "M 310.,172.679491924 315.,164.019237886"/> 
<path d= "M 300.,190. 300.,180."/> 
<path d= "M 300.,180. 295.,171.339745962"/> 
<path d= "M 300.,180. 300.,170."/> 
<path d= "M 300.,170. 295.,161.339745962"/> 
<path d= "M 300.,170. 300.,160."/> 
<path d= "M 300.,160. 295.,151.339745962"/> 
<path d= "M 295.,151.339745962 295.,141.339745962"/> 
<path d= "M 295.,151.339745962 290.,142.679491924"/> 
<path d= "M 290.,142.679491924 281.339745962,137.679491924"/> 
<path d= "M 290.,142.679491924 285.,134.019237886"/> 
<path d= "M 300.,160. 300.,150."/> 
<path d= "M 300.,150. 305.,141.339745962"/> 
<path d= "M 300.,150. 300.,140."/> 
<path d= "M 300.,140. 295.,131.339745962"/> 
<path d= "M 300.,140. 300.,130."/> 
<path d= "M 300.,130. 295.,121.339745962"/> 
<path d= "M 295.,121.339745962 295.,111.339745962"/> 
<path d= "M 295.,121.339745962 290.,112.679491924"/> 
<path d= "M 290.,112.679491924 281.339745962,107.679491924"/> 
<path d= "M 290.,112.679491924 285.,104.019237886"/> 
<path d= "M 285.,104.019237886 276.339745962,99.0192378865"/> 
<path d= "M 276.339745962,99.0192378865 266.339745962,99.0192378865"/> 
<path d= "M 276.339745962,99.0192378865 267.679491924,94.0192378865"/> 
<path d= "M 267.679491924,94.0192378865 262.679491924,85.3589838486"/> 
<path d= "M 267.679491924,94.0192378865 259.019237886,89.0192378865"/> 
<path d= "M 285.,104.019237886 280.,95.3589838486"/> 
<path d= "M 280.,95.3589838486 280.,85.3589838486"/> 
<path d= "M 280.,95.3589838486 275.,86.6987298108"/> 
<path d= "M 275.,86.6987298108 266.339745962,81.6987298108"/> 
<path d= "M 275.,86.6987298108 270.,78.0384757729"/> 
<path d= "M 270.,78.0384757729 261.339745962,73.0384757729"/> 
<path d= "M 261.339745962,73.0384757729 256.339745962,64.3782217351"/> 
<path d= "M 261.339745962,73.0384757729 252.679491924,68.0384757729"/> 
<path d= "M 252.679491924,68.0384757729 242.679491924,68.0384757729"/> 
<path d= "M 252.679491924,68.0384757729 244.019237886,63.0384757729"/> 
<path d= "M 270.,78.0384757729 265.,69.3782217351"/> 
<path d= "M 265.,69.3782217351 265.,59.3782217351"/> 
<path d= "M 265.,69.3782217351 260.,60.7179676972"/> 
<path d= "M 260.,60.7179676972 251.339745962,55.7179676972"/> 
<path d= "M 260.,60.7179676972 255.,52.0577136594"/> 
<path d= "M 300.,130. 300.,120."/> 
<path d= "M 300.,120. 305.,111.339745962"/> 
<path d= "M 300.,120. 300.,110."/> 
<path d= "M 300.,110. 295.,101.339745962"/> 
<path d= "M 300.,110. 300.,100."/> 
<path d= "M 300.,100. 295.,91.3397459622"/> 
<path d= "M 295.,91.3397459622 295.,81.3397459622"/> 
<path d= "M 295.,91.3397459622 290.,82.6794919243"/> 
<path d= "M 290.,82.6794919243 281.339745962,77.6794919243"/> 
<path d= "M 290.,82.6794919243 285.,74.0192378865"/> 
<path d= "M 300.,100. 300.,90."/> 
<path d= "M 300.,90. 305.,81.3397459622"/> 
<path d= "M 300.,90. 300.,80."/> 
<path d= "M 300.,80. 295.,71.3397459622"/> 
<path d= "M 300.,80. 300.,70."/> 
<path d= "M 300.,70. 305.,61.3397459622"/> 
<path d= "M 305.,61.3397459622 305.,51.3397459622"/> 
<path d= "M 305.,61.3397459622 310.,52.6794919243"/> 
<path d= "M 310.,52.6794919243 310.,42.6794919243"/> 
<path d= "M 310.,52.6794919243 315.,44.0192378865"/> 
<path d= "M 300.,70. 300.,60."/> 
<path d= "M 300.,60. 305.,51.3397459622"/> 
<path d= "M 300.,60. 300.,50."/> 
<path d= "M 300.,50. 305.,41.3397459622"/> 
<path d= "M 300.,50. 300.,40."/> 
</svg>
