<?xml version="1.0" encoding="UTF-8"?>
<svg  xmlns="http://www.w3.org/2000/svg" version="1.1" width="600" height="1000" stroke="black">
<path d= "M 300.,850. 300.,840."/> 
<path d= "M 300.,840. 300.,830."/> 
<path d= "M 300.,840. 305.,831.339745962"/> 
<path d= "M 300.,840. 308.660254038,835."/> 
<path d= "M 308.660254038,835. 308.660254038,825."/> 
<path d= "M 308.660254038,825. 308.660254038,815."/> 
<path d= "M 308.660254038,815. 308.660254038,805."/> 
<path d= "M 308.660254038,815. 313.660254038,806.339745962"/> 
<path d= "M 308.660254038,815. 317.320508076,810."/> 
<path d= "M 317.320508076,810. 317.320508076,800."/> 
<path d= "M 308.660254038,825. 313.660254038,816.339745962"/> 
<path d= "M 313.660254038,816.339745962 318.660254038,807.679491924"/> 
<path d= "M 313.660254038,816.339745962 322.320508076,811.339745962"/> 
<path d= "M 313.660254038,816.339745962 323.660254038,816.339745962"/> 
<path d= "M 323.660254038,816.339745962 328.660254038,807.679491924"/> 
<path d= "M 308.660254038,825. 317.320508076,820."/> 
<path d= "M 317.320508076,820. 325.980762114,815."/> 
<path d= "M 317.320508076,820. 327.320508076,820."/> 
<path d= "M 317.320508076,820. 325.980762114,825."/> 
<path d= "M 325.980762114,825. 334.641016151,820."/> 
<path d= "M 334.641016151,820. 334.641016151,810."/> 
<path d= "M 334.641016151,810. 334.641016151,800."/> 
<path d= "M 334.641016151,810. 339.641016151,801.339745962"/> 
<path d= "M 334.641016151,810. 343.301270189,805."/> 
<path d= "M 343.301270189,805. 343.301270189,795."/> 
<path d= "M 343.301270189,795. 343.301270189,785."/> 
<path d= "M 343.301270189,785. 343.301270189,775."/> 
<path d= "M 343.301270189,785. 348.301270189,776.339745962"/> 
<path d= "M 343.301270189,785. 351.961524227,780."/> 
<path d= "M 351.961524227,780. 351.961524227,770."/> 
<path d= "M 351.961524227,770. 351.961524227,760."/> 
<path d= "M 351.961524227,760. 351.961524227,750."/> 
<path d= "M 351.961524227,760. 356.961524227,751.339745962"/> 
<path d= "M 351.961524227,760. 360.621778265,755."/> 
<path d= "M 360.621778265,755. 360.621778265,745."/> 
<path d= "M 351.961524227,770. 356.961524227,761.339745962"/> 
<path d= "M 356.961524227,761.339745962 361.961524227,752.679491924"/> 
<path d= "M 356.961524227,761.339745962 365.621778265,756.339745962"/> 
<path d= "M 356.961524227,761.339745962 366.961524227,761.339745962"/> 
<path d= "M 366.961524227,761.339745962 371.961524227,752.679491924"/> 
<path d= "M 351.961524227,770. 360.621778265,765."/> 
<path d= "M 360.621778265,765. 369.282032303,760."/> 
<path d= "M 360.621778265,765. 370.621778265,765."/> 
<path d= "M 360.621778265,765. 369.282032303,770."/> 
<path d= "M 369.282032303,770. 377.942286341,765."/> 
<path d= "M 377.942286341,765. 377.942286341,755."/> 
<path d= "M 377.942286341,755. 377.942286341,745."/> 
<path d= "M 377.942286341,755. 382.942286341,746.339745962"/> 
<path d= "M 377.942286341,755. 386.602540378,750."/> 
<path d= "M 386.602540378,750. 386.602540378,740."/> 
<path d= "M 343.301270189,795. 348.301270189,786.339745962"/> 
<path d= "M 348.301270189,786.339745962 353.301270189,777.679491924"/> 
<path d= "M 348.301270189,786.339745962 356.961524227,781.339745962"/> 
<path d= "M 348.301270189,786.339745962 358.301270189,786.339745962"/> 
<path d= "M 358.301270189,786.339745962 363.301270189,777.679491924"/> 
<path d= "M 363.301270189,777.679491924 368.301270189,769.019237886"/> 
<path d= "M 368.301270189,769.019237886 373.301270189,760.358983849"/> 
<path d= "M 368.301270189,769.019237886 376.961524227,764.019237886"/> 
<path d= "M 368.301270189,769.019237886 378.301270189,769.019237886"/> 
<path d= "M 378.301270189,769.019237886 383.301270189,760.358983849"/> 
<path d= "M 363.301270189,777.679491924 371.961524227,772.679491924"/> 
<path d= "M 371.961524227,772.679491924 380.621778265,767.679491924"/> 
<path d= "M 371.961524227,772.679491924 381.961524227,772.679491924"/> 
<path d= "M 371.961524227,772.679491924 380.621778265,777.679491924"/> 
<path d= "M 380.621778265,777.679491924 389.282032303,772.679491924"/> 
<path d= "M 363.301270189,777.679491924 373.301270189,777.679491924"/> 
<path d= "M 373.301270189,777.679491924 383.301270189,777.679491924"/> 
<path d= "M 373.301270189,777.679491924 381.961524227,782.679491924"/> 
<path d= "M 373.301270189,777.679491924 378.301270189,786.339745962"/> 
<path d= "M 378.301270189,786.339745962 388.301270189,786.339745962"/> 
<path d= "M 388.301270189,786.339745962 393.301270189,777.679491924"/> 
<path d= "M 393.301270189,777.679491924 398.301270189,769.019237886"/> 
<path d= "M 393.301270189,777.679491924 401.961524227,772.679491924"/> 
<path d= "M 393.301270189,777.679491924 403.301270189,777.679491924"/> 
<path d= "M 403.301270189,777.679491924 408.301270189,769.019237886"/> 
<path d= "M 343.301270189,795. 351.961524227,790."/> 
<path d= "M 351.961524227,790. 360.621778265,785."/> 
<path d= "M 351.961524227,790. 361.961524227,790."/> 
<path d= "M 351.961524227,790. 360.621778265,795."/> 
<path d= "M 360.621778265,795. 369.282032303,790."/> 
<path d= "M 369.282032303,790. 377.942286341,785."/> 
<path d= "M 377.942286341,785. 386.602540378,780."/> 
<path d= "M 377.942286341,785. 387.942286341,785."/> 
<path d= "M 377.942286341,785. 386.602540378,790."/> 
<path d= "M 386.602540378,790. 395.262794416,785."/> 
<path d= "M 369.282032303,790. 379.282032303,790."/> 
<path d= "M 379.282032303,790. 389.282032303,790."/> 
<path d= "M 379.282032303,790. 387.942286341,795."/> 
<path d= "M 379.282032303,790. 384.282032303,798.660254038"/> 
<path d= "M 384.282032303,798.660254038 394.282032303,798.660254038"/> 
<path d= "M 369.282032303,790. 377.942286341,795."/> 
<path d= "M 377.942286341,795. 386.602540378,800."/> 
<path d= "M 377.942286341,795. 382.942286341,803.660254038"/> 
<path d= "M 377.942286341,795. 377.942286341,805."/> 
<path d= "M 377.942286341,805. 386.602540378,810."/> 
<path d= "M 386.602540378,810. 395.262794416,805."/> 
<path d= "M 395.262794416,805. 403.923048454,800."/> 
<path d= "M 395.262794416,805. 405.262794416,805."/> 
<path d= "M 395.262794416,805. 403.923048454,810."/> 
<path d= "M 403.923048454,810. 412.583302492,805."/> 
<path d= "M 412.583302492,805. 412.583302492,795."/> 
<path d= "M 412.583302492,795. 412.583302492,785."/> 
<path d= "M 412.583302492,795. 417.583302492,786.339745962"/> 
<path d= "M 412.583302492,795. 421.24355653,790."/> 
<path d= "M 421.24355653,790. 421.24355653,780."/> 
<path d= "M 421.24355653,780. 421.24355653,770."/> 
<path d= "M 421.24355653,770. 421.24355653,760."/> 
<path d= "M 421.24355653,770. 426.24355653,761.339745962"/> 
<path d= "M 421.24355653,770. 429.903810568,765."/> 
<path d= "M 429.903810568,765. 429.903810568,755."/> 
<path d= "M 421.24355653,780. 426.24355653,771.339745962"/> 
<path d= "M 426.24355653,771.339745962 431.24355653,762.679491924"/> 
<path d= "M 426.24355653,771.339745962 434.903810568,766.339745962"/> 
<path d= "M 426.24355653,771.339745962 436.24355653,771.339745962"/> 
<path d= "M 436.24355653,771.339745962 441.24355653,762.679491924"/> 
<path d= "M 421.24355653,780. 429.903810568,775."/> 
<path d= "M 429.903810568,775. 438.564064606,770."/> 
<path d= "M 429.903810568,775. 439.903810568,775."/> 
<path d= "M 429.903810568,775. 438.564064606,780."/> 
<path d= "M 438.564064606,780. 447.224318643,775."/> 
<path d= "M 447.224318643,775. 447.224318643,765."/> 
<path d= "M 447.224318643,765. 447.224318643,755."/> 
<path d= "M 447.224318643,765. 452.224318643,756.339745962"/> 
<path d= "M 447.224318643,765. 455.884572681,760."/> 
<path d= "M 455.884572681,760. 455.884572681,750."/> 
<path d= "M 455.884572681,750. 455.884572681,740."/> 
<path d= "M 455.884572681,740. 455.884572681,730."/> 
<path d= "M 455.884572681,740. 460.884572681,731.339745962"/> 
<path d= "M 455.884572681,740. 464.544826719,735."/> 
<path d= "M 464.544826719,735. 464.544826719,725."/> 
<path d= "M 464.544826719,725. 464.544826719,715."/> 
<path d= "M 464.544826719,715. 464.544826719,705."/> 
<path d= "M 464.544826719,715. 469.544826719,706.339745962"/> 
<path d= "M 464.544826719,715. 473.205080757,710."/> 
<path d= "M 473.205080757,710. 473.205080757,700."/> 
<path d= "M 464.544826719,725. 469.544826719,716.339745962"/> 
<path d= "M 469.544826719,716.339745962 474.544826719,707.679491924"/> 
<path d= "M 469.544826719,716.339745962 478.205080757,711.339745962"/> 
<path d= "M 469.544826719,716.339745962 479.544826719,716.339745962"/> 
<path d= "M 479.544826719,716.339745962 484.544826719,707.679491924"/> 
<path d= "M 464.544826719,725. 473.205080757,720."/> 
<path d= "M 473.205080757,720. 481.865334795,715."/> 
<path d= "M 473.205080757,720. 483.205080757,720."/> 
<path d= "M 473.205080757,720. 481.865334795,725."/> 
<path d= "M 481.865334795,725. 490.525588833,720."/> 
<path d= "M 490.525588833,720. 490.525588833,710."/> 
<path d= "M 490.525588833,710. 490.525588833,700."/> 
<path d= "M 490.525588833,710. 495.525588833,701.339745962"/> 
<path d= "M 490.525588833,710. 499.18584287,705."/> 
<path d= "M 499.18584287,705. 499.18584287,695."/> 
<path d= "M 499.18584287,695. 499.18584287,685."/> 
<path d= "M 499.18584287,685. 499.18584287,675."/> 
<path d= "M 499.18584287,685. 504.18584287,676.339745962"/> 
<path d= "M 499.18584287,685. 507.846096908,680."/> 
<path d= "M 507.846096908,680. 507.846096908,670."/> 
<path d= "M 507.846096908,670. 507.846096908,660."/> 
<path d= "M 507.846096908,660. 507.846096908,650."/> 
<path d= "M 507.846096908,660. 512.846096908,651.339745962"/> 
<path d= "M 507.846096908,660. 516.506350946,655."/> 
<path d= "M 516.506350946,655. 516.506350946,645."/> 
<path d= "M 507.846096908,670. 512.846096908,661.339745962"/> 
<path d= "M 512.846096908,661.339745962 517.846096908,652.679491924"/> 
<path d= "M 512.846096908,661.339745962 521.506350946,656.339745962"/> 
<path d= "M 512.846096908,661.339745962 522.846096908,661.339745962"/> 
<path d= "M 522.846096908,661.339745962 527.846096908,652.679491924"/> 
<path d= "M 507.846096908,670. 516.506350946,665."/> 
<path d= "M 516.506350946,665. 525.166604984,660."/> 
<path d= "M 516.506350946,665. 526.506350946,665."/> 
<path d= "M 516.506350946,665. 525.166604984,670."/> 
<path d= "M 525.166604984,670. 533.826859022,665."/> 
<path d= "M 533.826859022,665. 533.826859022,655."/> 
<path d= "M 533.826859022,655. 533.826859022,645."/> 
<path d= "M 533.826859022,655. 538.826859022,646.339745962"/> 
<path d= "M 533.826859022,655. 542.48711306,650."/> 
<path d= "M 542.48711306,650. 542.48711306,640."/> 
<path d= "M 499.18584287,695. 504.18584287,686.339745962"/> 
<path d= "M 504.18584287,686.339745962 509.18584287,677.679491924"/> 
<path d= "M 504.18584287,686.339745962 512.846096908,681.339745962"/> 
<path d= "M 504.18584287,686.339745962 514.18584287,686.339745962"/> 
<path d= "M 514.18584287,686.339745962 519.18584287,677.679491924"/> 
<path d= "M 519.18584287,677.679491924 524.18584287,669.019237886"/> 
<path d= "M 524.18584287,669.019237886 529.18584287,660.358983849"/> 
<path d= "M 524.18584287,669.019237886 532.846096908,664.019237886"/> 
<path d= "M 524.18584287,669.019237886 534.18584287,669.019237886"/> 
<path d= "M 534.18584287,669.019237886 539.18584287,660.358983849"/> 
<path d= "M 519.18584287,677.679491924 527.846096908,672.679491924"/> 
<path d= "M 527.846096908,672.679491924 536.506350946,667.679491924"/> 
<path d= "M 527.846096908,672.679491924 537.846096908,672.679491924"/> 
<path d= "M 527.846096908,672.679491924 536.506350946,677.679491924"/> 
<path d= "M 536.506350946,677.679491924 545.166604984,672.679491924"/> 
<path d= "M 519.18584287,677.679491924 529.18584287,677.679491924"/> 
<path d= "M 529.18584287,677.679491924 539.18584287,677.679491924"/> 
<path d= "M 529.18584287,677.679491924 537.846096908,682.679491924"/> 
<path d= "M 529.18584287,677.679491924 534.18584287,686.339745962"/> 
<path d= "M 534.18584287,686.339745962 544.18584287,686.339745962"/> 
<path d= "M 544.18584287,686.339745962 549.18584287,677.679491924"/> 
<path d= "M 549.18584287,677.679491924 554.18584287,669.019237886"/> 
<path d= "M 549.18584287,677.679491924 557.846096908,672.679491924"/> 
<path d= "M 549.18584287,677.679491924 559.18584287,677.679491924"/> 
<path d= "M 559.18584287,677.679491924 564.18584287,669.019237886"/> 
<path d= "M 499.18584287,695. 507.846096908,690."/> 
<path d= "M 507.846096908,690. 516.506350946,685."/> 
<path d= "M 507.846096908,690. 517.846096908,690."/> 
<path d= "M 507.846096908,690. 516.506350946,695."/> 
<path d= "M 516.506350946,695. 525.166604984,690."/> 
<path d= "M 525.166604984,690. 533.826859022,685."/> 
<path d= "M 533.826859022,685. 542.48711306,680."/> 
<path d= "M 533.826859022,685. 543.826859022,685."/> 
<path d= "M 533.826859022,685. 542.48711306,690."/> 
<path d= "M 542.48711306,690. 551.147367097,685."/> 
<path d= "M 525.166604984,690. 535.166604984,690."/> 
<path d= "M 535.166604984,690. 545.166604984,690."/> 
<path d= "M 535.166604984,690. 543.826859022,695."/> 
<path d= "M 535.166604984,690. 540.166604984,698.660254038"/> 
<path d= "M 540.166604984,698.660254038 550.166604984,698.660254038"/> 
<path d= "M 525.166604984,690. 533.826859022,695."/> 
<path d= "M 533.826859022,695. 542.48711306,700."/> 
<path d= "M 533.826859022,695. 538.826859022,703.660254038"/> 
<path d= "M 533.826859022,695. 533.826859022,705."/> 
<path d= "M 533.826859022,705. 542.48711306,710."/> 
<path d= "M 542.48711306,710. 551.147367097,705."/> 
<path d= "M 551.147367097,705. 559.807621135,700."/> 
<path d= "M 551.147367097,705. 561.147367097,705."/> 
<path d= "M 551.147367097,705. 559.807621135,710."/> 
<path d= "M 559.807621135,710. 568.467875173,705."/> 
<path d= "M 568.467875173,705. 568.467875173,695."/> 
<path d= "M 568.467875173,695. 568.467875173,685."/> 
<path d= "M 568.467875173,695. 573.467875173,686.339745962"/> 
<path d= "M 568.467875173,695. 577.128129211,690."/> 
<path d= "M 577.128129211,690. 577.128129211,680."/> 
<path d= "M 577.128129211,680. 577.128129211,670."/> 
<path d= "M 577.128129211,670. 577.128129211,660."/> 
<path d= "M 577.128129211,670. 582.128129211,661.339745962"/> 
<path d= "M 577.128129211,670. 585.788383249,665."/> 
<path d= "M 585.788383249,665. 585.788383249,655."/> 
<path d= "M 577.128129211,680. 582.128129211,671.339745962"/> 
<path d= "M 582.128129211,671.339745962 587.128129211,662.679491924"/> 
<path d= "M 582.128129211,671.339745962 590.788383249,666.339745962"/> 
<path d= "M 582.128129211,671.339745962 592.128129211,671.339745962"/> 
<path d= "M 592.128129211,671.339745962 597.128129211,662.679491924"/> 
<path d= "M 577.128129211,680. 585.788383249,675."/> 
<path d= "M 585.788383249,675. 594.448637287,670."/> 
<path d= "M 585.788383249,675. 595.788383249,675."/> 
<path d= "M 585.788383249,675. 594.448637287,680."/> 
<path d= "M 594.448637287,680. 603.108891325,675."/> 
<path d= "M 603.108891325,675. 603.108891325,665."/> 
<path d= "M 603.108891325,665. 603.108891325,655."/> 
<path d= "M 603.108891325,665. 608.108891325,656.339745962"/> 
<path d= "M 603.108891325,665. 611.769145362,660."/> 
<path d= "M 611.769145362,660. 611.769145362,650."/> 
<path d= "M 455.884572681,750. 460.884572681,741.339745962"/> 
<path d= "M 460.884572681,741.339745962 465.884572681,732.679491924"/> 
<path d= "M 460.884572681,741.339745962 469.544826719,736.339745962"/> 
<path d= "M 460.884572681,741.339745962 470.884572681,741.339745962"/> 
<path d= "M 470.884572681,741.339745962 475.884572681,732.679491924"/> 
<path d= "M 475.884572681,732.679491924 480.884572681,724.019237886"/> 
<path d= "M 480.884572681,724.019237886 485.884572681,715.358983849"/> 
<path d= "M 480.884572681,724.019237886 489.544826719,719.019237886"/> 
<path d= "M 480.884572681,724.019237886 490.884572681,724.019237886"/> 
<path d= "M 490.884572681,724.019237886 495.884572681,715.358983849"/> 
<path d= "M 475.884572681,732.679491924 484.544826719,727.679491924"/> 
<path d= "M 484.544826719,727.679491924 493.205080757,722.679491924"/> 
<path d= "M 484.544826719,727.679491924 494.544826719,727.679491924"/> 
<path d= "M 484.544826719,727.679491924 493.205080757,732.679491924"/> 
<path d= "M 493.205080757,732.679491924 501.865334795,727.679491924"/> 
<path d= "M 475.884572681,732.679491924 485.884572681,732.679491924"/> 
<path d= "M 485.884572681,732.679491924 495.884572681,732.679491924"/> 
<path d= "M 485.884572681,732.679491924 494.544826719,737.679491924"/> 
<path d= "M 485.884572681,732.679491924 490.884572681,741.339745962"/> 
<path d= "M 490.884572681,741.339745962 500.884572681,741.339745962"/> 
<path d= "M 500.884572681,741.339745962 505.884572681,732.679491924"/> 
<path d= "M 505.884572681,732.679491924 510.884572681,724.019237886"/> 
<path d= "M 505.884572681,732.679491924 514.544826719,727.679491924"/> 
<path d= "M 505.884572681,732.679491924 515.884572681,732.679491924"/> 
<path d= "M 515.884572681,732.679491924 520.884572681,724.019237886"/> 
<path d= "M 520.884572681,724.019237886 525.884572681,715.358983849"/> 
<path d= "M 525.884572681,715.358983849 530.884572681,706.698729811"/> 
<path d= "M 525.884572681,715.358983849 534.544826719,710.358983849"/> 
<path d= "M 525.884572681,715.358983849 535.884572681,715.358983849"/> 
<path d= "M 535.884572681,715.358983849 540.884572681,706.698729811"/> 
<path d= "M 540.884572681,706.698729811 545.884572681,698.038475773"/> 
<path d= "M 545.884572681,698.038475773 550.884572681,689.378221735"/> 
<path d= "M 545.884572681,698.038475773 554.544826719,693.038475773"/> 
<path d= "M 545.884572681,698.038475773 555.884572681,698.038475773"/> 
<path d= "M 555.884572681,698.038475773 560.884572681,689.378221735"/> 
<path d= "M 540.884572681,706.698729811 549.544826719,701.698729811"/> 
<path d= "M 549.544826719,701.698729811 558.205080757,696.698729811"/> 
<path d= "M 549.544826719,701.698729811 559.544826719,701.698729811"/> 
<path d= "M 549.544826719,701.698729811 558.205080757,706.698729811"/> 
<path d= "M 558.205080757,706.698729811 566.865334795,701.698729811"/> 
<path d= "M 540.884572681,706.698729811 550.884572681,706.698729811"/> 
<path d= "M 550.884572681,706.698729811 560.884572681,706.698729811"/> 
<path d= "M 550.884572681,706.698729811 559.544826719,711.698729811"/> 
<path d= "M 550.884572681,706.698729811 555.884572681,715.358983849"/> 
<path d= "M 555.884572681,715.358983849 565.884572681,715.358983849"/> 
<path d= "M 565.884572681,715.358983849 570.884572681,706.698729811"/> 
<path d= "M 570.884572681,706.698729811 575.884572681,698.038475773"/> 
<path d= "M 570.884572681,706.698729811 579.544826719,701.698729811"/> 
<path d= "M 570.884572681,706.698729811 580.884572681,706.698729811"/> 
<path d= "M 580.884572681,706.698729811 585.884572681,698.038475773"/> 
<path d= "M 520.884572681,724.019237886 529.544826719,719.019237886"/> 
<path d= "M 529.544826719,719.019237886 538.205080757,714.019237886"/> 
<path d= "M 529.544826719,719.019237886 539.544826719,719.019237886"/> 
<path d= "M 529.544826719,719.019237886 538.205080757,724.019237886"/> 
<path d= "M 538.205080757,724.019237886 546.865334795,719.019237886"/> 
<path d= "M 546.865334795,719.019237886 555.525588833,714.019237886"/> 
<path d= "M 555.525588833,714.019237886 564.18584287,709.019237886"/> 
<path d= "M 555.525588833,714.019237886 565.525588833,714.019237886"/> 
<path d= "M 555.525588833,714.019237886 564.18584287,719.019237886"/> 
<path d= "M 564.18584287,719.019237886 572.846096908,714.019237886"/> 
<path d= "M 546.865334795,719.019237886 556.865334795,719.019237886"/> 
<path d= "M 556.865334795,719.019237886 566.865334795,719.019237886"/> 
<path d= "M 556.865334795,719.019237886 565.525588833,724.019237886"/> 
<path d= "M 556.865334795,719.019237886 561.865334795,727.679491924"/> 
<path d= "M 561.865334795,727.679491924 571.865334795,727.679491924"/> 
<path d= "M 546.865334795,719.019237886 555.525588833,724.019237886"/> 
<path d= "M 555.525588833,724.019237886 564.18584287,729.019237886"/> 
<path d= "M 555.525588833,724.019237886 560.525588833,732.679491924"/> 
<path d= "M 555.525588833,724.019237886 555.525588833,734.019237886"/> 
<path d= "M 555.525588833,734.019237886 564.18584287,739.019237886"/> 
<path d= "M 564.18584287,739.019237886 572.846096908,734.019237886"/> 
<path d= "M 572.846096908,734.019237886 581.506350946,729.019237886"/> 
<path d= "M 572.846096908,734.019237886 582.846096908,734.019237886"/> 
<path d= "M 572.846096908,734.019237886 581.506350946,739.019237886"/> 
<path d= "M 581.506350946,739.019237886 590.166604984,734.019237886"/> 
<path d= "M 520.884572681,724.019237886 530.884572681,724.019237886"/> 
<path d= "M 530.884572681,724.019237886 540.884572681,724.019237886"/> 
<path d= "M 530.884572681,724.019237886 539.544826719,729.019237886"/> 
<path d= "M 530.884572681,724.019237886 535.884572681,732.679491924"/> 
<path d= "M 535.884572681,732.679491924 545.884572681,732.679491924"/> 
<path d= "M 545.884572681,732.679491924 555.884572681,732.679491924"/> 
<path d= "M 555.884572681,732.679491924 565.884572681,732.679491924"/> 
<path d= "M 555.884572681,732.679491924 564.544826719,737.679491924"/> 
<path d= "M 555.884572681,732.679491924 560.884572681,741.339745962"/> 
<path d= "M 560.884572681,741.339745962 570.884572681,741.339745962"/> 
<path d= "M 545.884572681,732.679491924 554.544826719,737.679491924"/> 
<path d= "M 554.544826719,737.679491924 563.205080757,742.679491924"/> 
<path d= "M 554.544826719,737.679491924 559.544826719,746.339745962"/> 
<path d= "M 554.544826719,737.679491924 554.544826719,747.679491924"/> 
<path d= "M 554.544826719,747.679491924 563.205080757,752.679491924"/> 
<path d= "M 545.884572681,732.679491924 550.884572681,741.339745962"/> 
<path d= "M 550.884572681,741.339745962 555.884572681,750."/> 
<path d= "M 550.884572681,741.339745962 550.884572681,751.339745962"/> 
<path d= "M 550.884572681,741.339745962 545.884572681,750."/> 
<path d= "M 545.884572681,750. 550.884572681,758.660254038"/> 
<path d= "M 550.884572681,758.660254038 560.884572681,758.660254038"/> 
<path d= "M 560.884572681,758.660254038 570.884572681,758.660254038"/> 
<path d= "M 560.884572681,758.660254038 569.544826719,763.660254038"/> 
<path d= "M 560.884572681,758.660254038 565.884572681,767.320508076"/> 
<path d= "M 565.884572681,767.320508076 575.884572681,767.320508076"/> 
<path d= "M 575.884572681,767.320508076 580.884572681,758.660254038"/> 
<path d= "M 580.884572681,758.660254038 585.884572681,750."/> 
<path d= "M 580.884572681,758.660254038 589.544826719,753.660254038"/> 
<path d= "M 580.884572681,758.660254038 590.884572681,758.660254038"/> 
<path d= "M 590.884572681,758.660254038 595.884572681,750."/> 
<path d= "M 595.884572681,750. 600.884572681,741.339745962"/> 
<path d= "M 600.884572681,741.339745962 605.884572681,732.679491924"/> 
<path d= "M 600.884572681,741.339745962 609.544826719,736.339745962"/> 
<path d= "M 600.884572681,741.339745962 610.884572681,741.339745962"/> 
<path d= "M 610.884572681,741.339745962 615.884572681,732.679491924"/> 
<path d= "M 595.884572681,750. 604.544826719,745."/> 
<path d= "M 604.544826719,745. 613.205080757,740."/> 
<path d= "M 604.544826719,745. 614.544826719,745."/> 
<path d= "M 604.544826719,745. 613.205080757,750."/> 
<path d= "M 613.205080757,750. 621.865334795,745."/> 
<path d= "M 595.884572681,750. 605.884572681,750."/> 
<path d= "M 605.884572681,750. 615.884572681,750."/> 
<path d= "M 605.884572681,750. 614.544826719,755."/> 
<path d= "M 605.884572681,750. 610.884572681,758.660254038"/> 
<path d= "M 610.884572681,758.660254038 620.884572681,758.660254038"/> 
<path d= "M 620.884572681,758.660254038 625.884572681,750."/> 
<path d= "M 625.884572681,750. 630.884572681,741.339745962"/> 
<path d= "M 625.884572681,750. 634.544826719,745."/> 
<path d= "M 625.884572681,750. 635.884572681,750."/> 
<path d= "M 635.884572681,750. 640.884572681,741.339745962"/> 
<path d= "M 455.884572681,750. 464.544826719,745."/> 
<path d= "M 464.544826719,745. 473.205080757,740."/> 
<path d= "M 464.544826719,745. 474.544826719,745."/> 
<path d= "M 464.544826719,745. 473.205080757,750."/> 
<path d= "M 473.205080757,750. 481.865334795,745."/> 
<path d= "M 481.865334795,745. 490.525588833,740."/> 
<path d= "M 490.525588833,740. 499.18584287,735."/> 
<path d= "M 490.525588833,740. 500.525588833,740."/> 
<path d= "M 490.525588833,740. 499.18584287,745."/> 
<path d= "M 499.18584287,745. 507.846096908,740."/> 
<path d= "M 481.865334795,745. 491.865334795,745."/> 
<path d= "M 491.865334795,745. 501.865334795,745."/> 
<path d= "M 491.865334795,745. 500.525588833,750."/> 
<path d= "M 491.865334795,745. 496.865334795,753.660254038"/> 
<path d= "M 496.865334795,753.660254038 506.865334795,753.660254038"/> 
<path d= "M 481.865334795,745. 490.525588833,750."/> 
<path d= "M 490.525588833,750. 499.18584287,755."/> 
<path d= "M 490.525588833,750. 495.525588833,758.660254038"/> 
<path d= "M 490.525588833,750. 490.525588833,760."/> 
<path d= "M 490.525588833,760. 499.18584287,765."/> 
<path d= "M 499.18584287,765. 507.846096908,760."/> 
<path d= "M 507.846096908,760. 516.506350946,755."/> 
<path d= "M 507.846096908,760. 517.846096908,760."/> 
<path d= "M 507.846096908,760. 516.506350946,765."/> 
<path d= "M 516.506350946,765. 525.166604984,760."/> 
<path d= "M 525.166604984,760. 533.826859022,755."/> 
<path d= "M 533.826859022,755. 542.48711306,750."/> 
<path d= "M 533.826859022,755. 543.826859022,755."/> 
<path d= "M 533.826859022,755. 542.48711306,760."/> 
<path d= "M 542.48711306,760. 551.147367097,755."/> 
<path d= "M 551.147367097,755. 559.807621135,750."/> 
<path d= "M 559.807621135,750. 568.467875173,745."/> 
<path d= "M 559.807621135,750. 569.807621135,750."/> 
<path d= "M 559.807621135,750. 568.467875173,755."/> 
<path d= "M 568.467875173,755. 577.128129211,750."/> 
<path d= "M 551.147367097,755. 561.147367097,755."/> 
<path d= "M 561.147367097,755. 571.147367097,755."/> 
<path d= "M 561.147367097,755. 569.807621135,760."/> 
<path d= "M 561.147367097,755. 566.147367097,763.660254038"/> 
<path d= "M 566.147367097,763.660254038 576.147367097,763.660254038"/> 
<path d= "M 551.147367097,755. 559.807621135,760."/> 
<path d= "M 559.807621135,760. 568.467875173,765."/> 
<path d= "M 559.807621135,760. 564.807621135,768.660254038"/> 
<path d= "M 559.807621135,760. 559.807621135,770."/> 
<path d= "M 559.807621135,770. 568.467875173,775."/> 
<path d= "M 568.467875173,775. 577.128129211,770."/> 
<path d= "M 577.128129211,770. 585.788383249,765."/> 
<path d= "M 577.128129211,770. 587.128129211,770."/> 
<path d= "M 577.128129211,770. 585.788383249,775."/> 
<path d= "M 585.788383249,775. 594.448637287,770."/> 
<path d= "M 525.166604984,760. 535.166604984,760."/> 
<path d= "M 535.166604984,760. 545.166604984,760."/> 
<path d= "M 535.166604984,760. 543.826859022,765."/> 
<path d= "M 535.166604984,760. 540.166604984,768.660254038"/> 
<path d= "M 540.166604984,768.660254038 550.166604984,768.660254038"/> 
<path d= "M 550.166604984,768.660254038 560.166604984,768.660254038"/> 
<path d= "M 560.166604984,768.660254038 570.166604984,768.660254038"/> 
<path d= "M 560.166604984,768.660254038 568.826859022,773.660254038"/> 
<path d= "M 560.166604984,768.660254038 565.166604984,777.320508076"/> 
<path d= "M 565.166604984,777.320508076 575.166604984,777.320508076"/> 
<path d= "M 550.166604984,768.660254038 558.826859022,773.660254038"/> 
<path d= "M 558.826859022,773.660254038 567.48711306,778.660254038"/> 
<path d= "M 558.826859022,773.660254038 563.826859022,782.320508076"/> 
<path d= "M 558.826859022,773.660254038 558.826859022,783.660254038"/> 
<path d= "M 558.826859022,783.660254038 567.48711306,788.660254038"/> 
<path d= "M 550.166604984,768.660254038 555.166604984,777.320508076"/> 
<path d= "M 555.166604984,777.320508076 560.166604984,785.980762114"/> 
<path d= "M 555.166604984,777.320508076 555.166604984,787.320508076"/> 
<path d= "M 555.166604984,777.320508076 550.166604984,785.980762114"/> 
<path d= "M 550.166604984,785.980762114 555.166604984,794.641016151"/> 
<path d= "M 555.166604984,794.641016151 565.166604984,794.641016151"/> 
<path d= "M 565.166604984,794.641016151 575.166604984,794.641016151"/> 
<path d= "M 565.166604984,794.641016151 573.826859022,799.641016151"/> 
<path d= "M 565.166604984,794.641016151 570.166604984,803.301270189"/> 
<path d= "M 570.166604984,803.301270189 580.166604984,803.301270189"/> 
<path d= "M 525.166604984,760. 533.826859022,765."/> 
<path d= "M 533.826859022,765. 542.48711306,770."/> 
<path d= "M 533.826859022,765. 538.826859022,773.660254038"/> 
<path d= "M 533.826859022,765. 533.826859022,775."/> 
<path d= "M 533.826859022,775. 542.48711306,780."/> 
<path d= "M 542.48711306,780. 551.147367097,785."/> 
<path d= "M 551.147367097,785. 559.807621135,790."/> 
<path d= "M 551.147367097,785. 556.147367097,793.660254038"/> 
<path d= "M 551.147367097,785. 551.147367097,795."/> 
<path d= "M 551.147367097,795. 559.807621135,800."/> 
<path d= "M 542.48711306,780. 547.48711306,788.660254038"/> 
<path d= "M 547.48711306,788.660254038 552.48711306,797.320508076"/> 
<path d= "M 547.48711306,788.660254038 547.48711306,798.660254038"/> 
<path d= "M 547.48711306,788.660254038 542.48711306,797.320508076"/> 
<path d= "M 542.48711306,797.320508076 547.48711306,805.980762114"/> 
<path d= "M 542.48711306,780. 542.48711306,790."/> 
<path d= "M 542.48711306,790. 542.48711306,800."/> 
<path d= "M 542.48711306,790. 537.48711306,798.660254038"/> 
<path d= "M 542.48711306,790. 533.826859022,795."/> 
<path d= "M 533.826859022,795. 533.826859022,805."/> 
<path d= "M 533.826859022,805. 542.48711306,810."/> 
<path d= "M 542.48711306,810. 551.147367097,815."/> 
<path d= "M 542.48711306,810. 547.48711306,818.660254038"/> 
<path d= "M 542.48711306,810. 542.48711306,820."/> 
<path d= "M 542.48711306,820. 551.147367097,825."/> 
<path d= "M 551.147367097,825. 559.807621135,820."/> 
<path d= "M 559.807621135,820. 568.467875173,815."/> 
<path d= "M 559.807621135,820. 569.807621135,820."/> 
<path d= "M 559.807621135,820. 568.467875173,825."/> 
<path d= "M 568.467875173,825. 577.128129211,820."/> 
<path d= "M 577.128129211,820. 585.788383249,815."/> 
<path d= "M 585.788383249,815. 594.448637287,810."/> 
<path d= "M 585.788383249,815. 595.788383249,815."/> 
<path d= "M 585.788383249,815. 594.448637287,820."/> 
<path d= "M 594.448637287,820. 603.108891325,815."/> 
<path d= "M 577.128129211,820. 587.128129211,820."/> 
<path d= "M 587.128129211,820. 597.128129211,820."/> 
<path d= "M 587.128129211,820. 595.788383249,825."/> 
<path d= "M 587.128129211,820. 592.128129211,828.660254038"/> 
<path d= "M 592.128129211,828.660254038 602.128129211,828.660254038"/> 
<path d= "M 577.128129211,820. 585.788383249,825."/> 
<path d= "M 585.788383249,825. 594.448637287,830."/> 
<path d= "M 585.788383249,825. 590.788383249,833.660254038"/> 
<path d= "M 585.788383249,825. 585.788383249,835."/> 
<path d= "M 585.788383249,835. 594.448637287,840."/> 
<path d= "M 594.448637287,840. 603.108891325,835."/> 
<path d= "M 603.108891325,835. 611.769145362,830."/> 
<path d= "M 603.108891325,835. 613.108891325,835."/> 
<path d= "M 603.108891325,835. 611.769145362,840."/> 
<path d= "M 611.769145362,840. 620.4293994,835."/> 
<path d= "M 620.4293994,835. 620.4293994,825."/> 
<path d= "M 620.4293994,825. 620.4293994,815."/> 
<path d= "M 620.4293994,825. 625.4293994,816.339745962"/> 
<path d= "M 620.4293994,825. 629.089653438,820."/> 
<path d= "M 629.089653438,820. 629.089653438,810."/> 
<path d= "M 629.089653438,810. 629.089653438,800."/> 
<path d= "M 629.089653438,800. 629.089653438,790."/> 
<path d= "M 629.089653438,800. 634.089653438,791.339745962"/> 
<path d= "M 629.089653438,800. 637.749907476,795."/> 
<path d= "M 637.749907476,795. 637.749907476,785."/> 
<path d= "M 629.089653438,810. 634.089653438,801.339745962"/> 
<path d= "M 634.089653438,801.339745962 639.089653438,792.679491924"/> 
<path d= "M 634.089653438,801.339745962 642.749907476,796.339745962"/> 
<path d= "M 634.089653438,801.339745962 644.089653438,801.339745962"/> 
<path d= "M 644.089653438,801.339745962 649.089653438,792.679491924"/> 
<path d= "M 629.089653438,810. 637.749907476,805."/> 
<path d= "M 637.749907476,805. 646.410161514,800."/> 
<path d= "M 637.749907476,805. 647.749907476,805."/> 
<path d= "M 637.749907476,805. 646.410161514,810."/> 
<path d= "M 646.410161514,810. 655.070415552,805."/> 
<path d= "M 655.070415552,805. 655.070415552,795."/> 
<path d= "M 655.070415552,795. 655.070415552,785."/> 
<path d= "M 655.070415552,795. 660.070415552,786.339745962"/> 
<path d= "M 655.070415552,795. 663.730669589,790."/> 
<path d= "M 663.730669589,790. 663.730669589,780."/> 
<path d= "M 663.730669589,780. 663.730669589,770."/> 
<path d= "M 663.730669589,770. 663.730669589,760."/> 
<path d= "M 663.730669589,770. 668.730669589,761.339745962"/> 
<path d= "M 663.730669589,770. 672.390923627,765."/> 
<path d= "M 672.390923627,765. 672.390923627,755."/> 
<path d= "M 672.390923627,755. 672.390923627,745."/> 
<path d= "M 672.390923627,745. 672.390923627,735."/> 
<path d= "M 672.390923627,745. 677.390923627,736.339745962"/> 
<path d= "M 672.390923627,745. 681.051177665,740."/> 
<path d= "M 681.051177665,740. 681.051177665,730."/> 
<path d= "M 672.390923627,755. 677.390923627,746.339745962"/> 
<path d= "M 677.390923627,746.339745962 682.390923627,737.679491924"/> 
<path d= "M 677.390923627,746.339745962 686.051177665,741.339745962"/> 
<path d= "M 677.390923627,746.339745962 687.390923627,746.339745962"/> 
<path d= "M 687.390923627,746.339745962 692.390923627,737.679491924"/> 
<path d= "M 672.390923627,755. 681.051177665,750."/> 
<path d= "M 681.051177665,750. 689.711431703,745."/> 
<path d= "M 681.051177665,750. 691.051177665,750."/> 
<path d= "M 681.051177665,750. 689.711431703,755."/> 
<path d= "M 689.711431703,755. 698.371685741,750."/> 
<path d= "M 698.371685741,750. 698.371685741,740."/> 
<path d= "M 698.371685741,740. 698.371685741,730."/> 
<path d= "M 698.371685741,740. 703.371685741,731.339745962"/> 
<path d= "M 698.371685741,740. 707.031939779,735."/> 
<path d= "M 707.031939779,735. 707.031939779,725."/> 
<path d= "M 663.730669589,780. 668.730669589,771.339745962"/> 
<path d= "M 668.730669589,771.339745962 673.730669589,762.679491924"/> 
<path d= "M 668.730669589,771.339745962 677.390923627,766.339745962"/> 
<path d= "M 668.730669589,771.339745962 678.730669589,771.339745962"/> 
<path d= "M 678.730669589,771.339745962 683.730669589,762.679491924"/> 
<path d= "M 683.730669589,762.679491924 688.730669589,754.019237886"/> 
<path d= "M 688.730669589,754.019237886 693.730669589,745.358983849"/> 
<path d= "M 688.730669589,754.019237886 697.390923627,749.019237886"/> 
<path d= "M 688.730669589,754.019237886 698.730669589,754.019237886"/> 
<path d= "M 698.730669589,754.019237886 703.730669589,745.358983849"/> 
<path d= "M 683.730669589,762.679491924 692.390923627,757.679491924"/> 
<path d= "M 692.390923627,757.679491924 701.051177665,752.679491924"/> 
<path d= "M 692.390923627,757.679491924 702.390923627,757.679491924"/> 
<path d= "M 692.390923627,757.679491924 701.051177665,762.679491924"/> 
<path d= "M 701.051177665,762.679491924 709.711431703,757.679491924"/> 
<path d= "M 683.730669589,762.679491924 693.730669589,762.679491924"/> 
<path d= "M 693.730669589,762.679491924 703.730669589,762.679491924"/> 
<path d= "M 693.730669589,762.679491924 702.390923627,767.679491924"/> 
<path d= "M 693.730669589,762.679491924 698.730669589,771.339745962"/> 
<path d= "M 698.730669589,771.339745962 708.730669589,771.339745962"/> 
<path d= "M 708.730669589,771.339745962 713.730669589,762.679491924"/> 
<path d= "M 713.730669589,762.679491924 718.730669589,754.019237886"/> 
<path d= "M 713.730669589,762.679491924 722.390923627,757.679491924"/> 
<path d= "M 713.730669589,762.679491924 723.730669589,762.679491924"/> 
<path d= "M 723.730669589,762.679491924 728.730669589,754.019237886"/> 
<path d= "M 663.730669589,780. 672.390923627,775."/> 
<path d= "M 672.390923627,775. 681.051177665,770."/> 
<path d= "M 672.390923627,775. 682.390923627,775."/> 
<path d= "M 672.390923627,775. 681.051177665,780."/> 
<path d= "M 681.051177665,780. 689.711431703,775."/> 
<path d= "M 689.711431703,775. 698.371685741,770."/> 
<path d= "M 698.371685741,770. 707.031939779,765."/> 
<path d= "M 698.371685741,770. 708.371685741,770."/> 
<path d= "M 698.371685741,770. 707.031939779,775."/> 
<path d= "M 707.031939779,775. 715.692193817,770."/> 
<path d= "M 689.711431703,775. 699.711431703,775."/> 
<path d= "M 699.711431703,775. 709.711431703,775."/> 
<path d= "M 699.711431703,775. 708.371685741,780."/> 
<path d= "M 699.711431703,775. 704.711431703,783.660254038"/> 
<path d= "M 704.711431703,783.660254038 714.711431703,783.660254038"/> 
<path d= "M 689.711431703,775. 698.371685741,780."/> 
<path d= "M 698.371685741,780. 707.031939779,785."/> 
<path d= "M 698.371685741,780. 703.371685741,788.660254038"/> 
<path d= "M 698.371685741,780. 698.371685741,790."/> 
<path d= "M 698.371685741,790. 707.031939779,795."/> 
<path d= "M 707.031939779,795. 715.692193817,790."/> 
<path d= "M 715.692193817,790. 724.352447854,785."/> 
<path d= "M 715.692193817,790. 725.692193817,790."/> 
<path d= "M 715.692193817,790. 724.352447854,795."/> 
<path d= "M 724.352447854,795. 733.012701892,790."/> 
<path d= "M 733.012701892,790. 733.012701892,780."/> 
<path d= "M 733.012701892,780. 733.012701892,770."/> 
<path d= "M 733.012701892,780. 738.012701892,771.339745962"/> 
<path d= "M 733.012701892,780. 741.67295593,775."/> 
<path d= "M 741.67295593,775. 741.67295593,765."/> 
<path d= "M 741.67295593,765. 741.67295593,755."/> 
<path d= "M 741.67295593,755. 741.67295593,745."/> 
<path d= "M 741.67295593,755. 746.67295593,746.339745962"/> 
<path d= "M 741.67295593,755. 750.333209968,750."/> 
<path d= "M 750.333209968,750. 750.333209968,740."/> 
<path d= "M 741.67295593,765. 746.67295593,756.339745962"/> 
<path d= "M 746.67295593,756.339745962 751.67295593,747.679491924"/> 
<path d= "M 746.67295593,756.339745962 755.333209968,751.339745962"/> 
<path d= "M 746.67295593,756.339745962 756.67295593,756.339745962"/> 
<path d= "M 756.67295593,756.339745962 761.67295593,747.679491924"/> 
<path d= "M 741.67295593,765. 750.333209968,760."/> 
<path d= "M 750.333209968,760. 758.993464006,755."/> 
<path d= "M 750.333209968,760. 760.333209968,760."/> 
<path d= "M 750.333209968,760. 758.993464006,765."/> 
<path d= "M 758.993464006,765. 767.653718044,760."/> 
<path d= "M 767.653718044,760. 767.653718044,750."/> 
<path d= "M 767.653718044,750. 767.653718044,740."/> 
<path d= "M 767.653718044,750. 772.653718044,741.339745962"/> 
<path d= "M 767.653718044,750. 776.313972081,745."/> 
<path d= "M 776.313972081,745. 776.313972081,735."/> 
</svg>
